{"glyphs":{"0":{"ha":790,"x_min":0,"x_max":0,"o":"m 739 372 b 443 789 765 643 638 789 b 60 375 249 789 86 644 b 357 -14 36 132 163 -14 b 739 372 551 -14 715 131 z m 158 404 b 426 738 182 639 288 738 b 640 343 571 738 667 617 b 374 39 619 138 513 39 b 158 404 229 39 135 160 z "},"1":{"ha":518,"x_min":0,"x_max":0,"o":"m 465 32 l 321 78 l 367 510 l 374 582 l 414 781 l 392 797 l 47 596 l 60 568 l 299 661 l 238 78 l 236 78 l -4 28 l -1 0 l 460 0 z "},"2":{"ha":657,"x_min":0,"x_max":0,"o":"m 260 0 l 592 -14 l 597 92 b 151 56 424 89 294 74 l 271 167 b 617 565 535 364 607 447 b 618 596 618 575 618 585 b 406 789 618 699 558 789 b 86 583 289 789 181 722 l 156 531 l 292 717 b 381 732 324 726 353 732 b 524 581 478 732 524 675 b 235 199 524 446 457 354 l 17 46 l 47 -22 z "},"3":{"ha":626,"x_min":0,"x_max":0,"o":"m 544 97 b 338 326 544 197 493 285 b 536 594 454 388 536 460 b 328 788 536 707 468 788 b 40 651 208 788 122 731 l 108 585 l 225 719 b 310 729 253 726 279 729 b 447 619 382 729 433 693 b 450 579 449 607 450 593 b 225 314 450 447 364 368 l 128 275 l 158 201 l 276 267 b 456 76 404 236 456 175 b 288 -183 456 -49 388 -124 l 10 -187 l 11 -278 b 544 97 303 -278 544 -129 z "},"4":{"ha":696,"x_min":0,"x_max":0,"o":"m 469 -278 l 486 -4 l 626 -14 l 639 85 l 493 75 l 547 597 l 582 792 l 546 806 l -24 46 l 3 -14 l 128 0 l 399 0 l 358 -283 z m 467 626 l 407 71 l 72 71 z "},"5":{"ha":599,"x_min":0,"x_max":0,"o":"m 515 94 b 104 371 515 264 413 351 l 194 690 b 568 683 317 683 432 681 l 585 779 l 310 768 l 138 775 l 42 300 b 421 85 326 288 421 221 b 258 -183 421 -35 369 -118 l -19 -187 l -19 -278 b 515 94 288 -278 515 -129 z "},"6":{"ha":726,"x_min":0,"x_max":0,"o":"m 671 335 b 433 601 671 501 589 601 b 167 490 329 601 246 563 b 317 815 188 624 236 726 l 614 896 l 597 986 b 64 339 275 913 64 719 b 343 -11 64 140 154 -8 b 671 335 518 -14 671 126 z m 157 347 b 161 444 157 381 158 414 b 389 539 238 510 317 539 b 579 322 511 539 579 469 b 378 42 579 129 481 42 b 157 347 242 42 157 153 z "},"7":{"ha":644,"x_min":0,"x_max":0,"o":"m 390 256 l 669 713 l 639 775 l 471 765 l 64 789 l 58 685 b 592 717 243 683 435 699 b 50 -246 400 397 229 97 l 153 -290 z "},"8":{"ha":714,"x_min":0,"x_max":0,"o":"m 650 253 b 492 496 650 346 624 418 b 660 774 622 589 660 671 b 426 986 660 890 586 986 b 142 732 263 986 142 883 b 257 526 142 642 174 582 b 42 218 114 457 42 351 b 333 -14 42 68 144 -14 b 650 253 513 -14 650 88 z m 426 531 b 232 756 265 608 232 667 b 233 785 232 765 232 775 b 399 932 247 879 321 932 b 563 760 514 932 563 867 b 458 514 563 667 538 593 b 426 531 449 519 438 525 z m 142 238 b 294 503 142 351 181 435 b 339 479 308 494 322 486 b 364 467 347 475 356 471 b 550 235 525 390 550 328 b 549 203 550 224 549 214 b 342 42 535 103 454 42 b 142 238 213 42 142 110 z "},"9":{"ha":757,"x_min":0,"x_max":0,"o":"m 669 361 b 396 789 699 635 586 786 b 67 443 221 792 67 651 b 306 176 67 276 149 176 b 571 286 410 176 493 215 b 378 -107 544 119 479 6 l 83 -187 l 99 -278 b 669 361 424 -204 636 31 z m 160 457 b 361 738 160 650 258 738 b 579 347 506 738 607 610 b 578 335 579 343 578 339 b 351 240 501 269 422 240 b 160 457 228 240 160 310 z "},"\u0000":{"ha":0,"x_min":0,"x_max":0,"o":""},"\r":{"ha":0,"x_min":0,"x_max":0,"o":""},"A":{"ha":813,"x_min":0,"x_max":0,"o":"m 794 32 l 711 61 l 499 978 l 428 972 l 365 764 l 31 67 l -46 32 l -40 0 l 256 0 l 261 32 l 118 64 l 163 208 l 226 347 l 404 351 l 561 349 l 622 71 l 499 32 l 504 0 l 788 0 z m 453 838 l 549 401 l 410 399 l 251 401 z "},"Á":{"ha":813,"x_min":0,"x_max":0,"o":"m 686 1169 l 628 1249 l 415 1036 l 435 1013 z m 794 32 l 711 61 l 499 978 l 428 972 l 365 764 l 31 67 l -46 32 l -40 0 l 256 0 l 261 32 l 118 64 l 163 208 l 226 347 l 404 351 l 561 349 l 622 71 l 499 32 l 504 0 l 788 0 z m 453 838 l 549 401 l 410 399 l 251 401 z "},"Ă":{"ha":813,"x_min":0,"x_max":0,"o":"m 671 1231 l 628 1235 b 485 1085 617 1135 563 1085 b 378 1235 404 1085 367 1129 l 294 1231 b 465 1026 278 1082 344 1026 b 671 1231 583 1026 657 1100 z m 794 32 l 711 61 l 499 978 l 428 972 l 365 764 l 31 67 l -46 32 l -40 0 l 256 0 l 261 32 l 118 64 l 163 208 l 226 347 l 404 351 l 561 349 l 622 71 l 499 32 l 504 0 l 788 0 z m 453 838 l 549 401 l 410 399 l 251 401 z "},"Â":{"ha":813,"x_min":0,"x_max":0,"o":"m 681 1036 l 526 1221 l 432 1221 l 236 1038 l 258 1014 l 463 1156 l 654 1014 z m 794 32 l 711 61 l 499 978 l 428 972 l 365 764 l 31 67 l -46 32 l -40 0 l 256 0 l 261 32 l 118 64 l 163 208 l 226 347 l 404 351 l 561 349 l 622 71 l 499 32 l 504 0 l 788 0 z m 453 838 l 549 401 l 410 399 l 251 401 z "},"Ä":{"ha":813,"x_min":0,"x_max":0,"o":"m 399 1144 b 333 1213 399 1176 382 1213 b 268 1144 285 1213 268 1176 b 333 1076 268 1113 285 1076 b 399 1144 382 1076 399 1113 z m 671 1144 b 606 1213 671 1176 654 1213 b 540 1144 557 1213 540 1176 b 606 1076 540 1113 557 1076 b 671 1144 654 1076 671 1113 z m 794 32 l 711 61 l 499 978 l 428 972 l 365 764 l 31 67 l -46 32 l -40 0 l 256 0 l 261 32 l 118 64 l 163 208 l 226 347 l 404 351 l 561 349 l 622 71 l 499 32 l 504 0 l 788 0 z m 453 838 l 549 401 l 410 399 l 251 401 z "},"À":{"ha":813,"x_min":0,"x_max":0,"o":"m 551 1013 l 571 1036 l 365 1249 l 304 1169 z m 794 32 l 711 61 l 499 978 l 428 972 l 365 764 l 31 67 l -46 32 l -40 0 l 256 0 l 261 32 l 118 64 l 163 208 l 226 347 l 404 351 l 561 349 l 622 71 l 499 32 l 504 0 l 788 0 z m 453 838 l 549 401 l 410 399 l 251 401 z "},"Ā":{"ha":813,"x_min":0,"x_max":0,"o":"m 479 1092 l 688 1085 l 696 1150 l 485 1143 l 275 1150 l 267 1085 z m 794 32 l 711 61 l 499 978 l 428 972 l 365 764 l 31 67 l -46 32 l -40 0 l 256 0 l 261 32 l 118 64 l 163 208 l 226 347 l 404 351 l 561 349 l 622 71 l 499 32 l 504 0 l 788 0 z m 453 838 l 549 401 l 410 399 l 251 401 z "},"Ą":{"ha":813,"x_min":0,"x_max":0,"o":"m 683 -283 l 681 -250 b 546 -181 582 -265 546 -239 b 665 0 546 -121 583 -60 l 788 0 l 794 32 l 711 61 l 499 978 l 428 972 l 365 764 l 31 67 l -46 32 l -40 0 l 256 0 l 261 32 l 118 64 l 163 208 l 226 347 l 404 351 l 561 349 l 622 71 l 499 32 l 504 0 l 613 0 b 464 -208 510 -75 464 -143 b 574 -307 464 -269 506 -307 b 683 -283 613 -307 650 -299 z m 453 838 l 549 401 l 410 399 l 251 401 z "},"Å":{"ha":813,"x_min":0,"x_max":0,"o":"m 657 1150 b 490 1264 657 1224 594 1264 b 313 1139 386 1264 313 1221 b 479 1026 313 1068 375 1026 b 657 1150 583 1026 657 1071 z m 393 1142 b 489 1222 393 1190 424 1222 b 578 1147 544 1222 578 1190 b 481 1067 578 1097 546 1067 b 393 1142 426 1067 393 1097 z m 794 32 l 711 61 l 499 978 l 428 972 l 365 764 l 31 67 l -46 32 l -40 0 l 256 0 l 261 32 l 118 64 l 163 208 l 226 347 l 404 351 l 561 349 l 622 71 l 499 32 l 504 0 l 788 0 z m 453 838 l 549 401 l 410 399 l 251 401 z "},"Ã":{"ha":813,"x_min":0,"x_max":0,"o":"m 726 1194 l 690 1208 b 599 1113 665 1149 639 1113 b 506 1161 569 1113 550 1126 b 389 1215 457 1199 428 1215 b 246 1056 333 1215 278 1168 l 282 1042 b 374 1138 307 1101 333 1138 b 467 1089 403 1138 422 1124 b 583 1035 515 1051 543 1035 b 726 1194 639 1035 694 1082 z m 794 32 l 711 61 l 499 978 l 428 972 l 365 764 l 31 67 l -46 32 l -40 0 l 256 0 l 261 32 l 118 64 l 163 208 l 226 347 l 404 351 l 561 349 l 622 71 l 499 32 l 504 0 l 788 0 z m 453 838 l 549 401 l 410 399 l 251 401 z "},"Æ":{"ha":1235,"x_min":0,"x_max":0,"o":"m 518 764 l 28 65 l -46 32 l -40 0 l 294 0 l 300 32 l 132 69 l 200 210 l 294 347 l 461 351 l 611 349 l 582 76 l 443 32 l 449 0 l 928 0 l 1092 -14 l 1157 290 l 1125 300 l 1031 76 l 663 50 l 707 468 l 928 461 l 957 319 l 990 325 l 1025 658 l 993 664 l 935 522 l 711 515 l 754 924 l 1088 897 l 1167 693 l 1197 701 l 1150 986 l 988 972 l 621 972 z m 669 900 l 617 401 l 467 399 l 331 401 z "},"B":{"ha":800,"x_min":0,"x_max":0,"o":"m 121 940 l 244 901 l 157 76 l 111 61 l 18 32 l 24 0 l 299 0 b 364 1 321 0 343 0 b 732 278 558 14 714 86 b 504 518 747 422 654 501 b 719 747 631 557 707 631 b 443 972 735 904 636 972 l 126 972 z m 328 910 l 425 922 b 622 785 550 925 614 874 b 621 736 622 769 622 753 b 364 536 608 624 546 536 l 289 536 z m 239 69 l 283 486 l 347 486 b 635 275 539 486 650 426 b 358 58 618 107 478 58 z "},"C":{"ha":799,"x_min":0,"x_max":0,"o":"m 572 4 l 657 -14 l 750 290 l 714 303 b 435 40 631 81 540 40 b 154 414 232 40 154 211 b 497 929 154 772 310 929 b 747 690 617 929 679 881 l 783 700 l 715 986 l 639 968 b 514 985 604 978 563 985 b 61 399 283 985 61 774 b 414 -15 61 179 164 -15 b 572 4 472 -15 517 -10 z "},"Ć":{"ha":799,"x_min":0,"x_max":0,"o":"m 739 1169 l 681 1249 l 468 1036 l 488 1013 z m 572 4 l 657 -14 l 750 290 l 714 303 b 435 40 631 81 540 40 b 154 414 232 40 154 211 b 497 929 154 772 310 929 b 747 690 617 929 679 881 l 783 700 l 715 986 l 639 968 b 514 985 604 978 563 985 b 61 399 283 985 61 774 b 414 -15 61 179 164 -15 b 572 4 472 -15 517 -10 z "},"Č":{"ha":799,"x_min":0,"x_max":0,"o":"m 321 1226 l 456 1042 l 550 1042 l 765 1225 l 746 1249 l 526 1107 l 350 1249 z m 572 4 l 657 -14 l 750 290 l 714 303 b 435 40 631 81 540 40 b 154 414 232 40 154 211 b 497 929 154 772 310 929 b 747 690 617 929 679 881 l 783 700 l 715 986 l 639 968 b 514 985 604 978 563 985 b 61 399 283 985 61 774 b 414 -15 61 179 164 -15 b 572 4 472 -15 517 -10 z "},"Ç":{"ha":799,"x_min":0,"x_max":0,"o":"m 550 -156 b 426 -71 550 -93 501 -64 l 449 -14 b 572 4 492 -12 528 -7 l 657 -14 l 750 290 l 714 303 b 435 40 631 81 540 40 b 154 414 232 40 154 211 b 497 929 154 772 310 929 b 747 690 617 929 679 881 l 783 700 l 715 986 l 639 968 b 514 985 604 978 563 985 b 61 399 283 985 61 774 b 397 -15 61 185 160 -7 l 350 -108 b 468 -175 439 -103 468 -132 b 369 -293 468 -219 436 -256 l 386 -321 b 550 -156 488 -282 550 -228 z "},"D":{"ha":917,"x_min":0,"x_max":0,"o":"m 121 940 l 244 901 l 157 76 l 18 32 l 24 0 l 342 0 b 886 561 664 0 886 199 b 458 972 886 815 753 972 l 126 972 z m 453 918 b 789 565 728 904 789 765 b 375 54 789 228 626 54 l 242 78 l 328 897 z "},"Ð":{"ha":975,"x_min":0,"x_max":0,"o":"m 179 940 l 303 901 l 261 511 l 68 514 l 63 458 l 256 461 l 215 76 l 76 32 l 82 0 l 400 0 b 944 561 722 0 944 199 b 517 972 944 815 811 972 l 185 972 z m 343 463 l 594 458 l 600 514 l 349 510 l 346 510 l 386 897 l 511 918 b 847 565 786 904 847 765 b 433 54 847 228 685 54 l 300 78 l 340 463 z "},"Ď":{"ha":918,"x_min":0,"x_max":0,"o":"m 310 1226 l 444 1042 l 539 1042 l 754 1225 l 735 1249 l 515 1107 l 339 1249 z m 121 940 l 244 901 l 157 76 l 18 32 l 24 0 l 342 0 b 886 561 664 0 886 199 b 458 972 886 815 753 972 l 126 972 z m 453 918 b 789 565 728 904 789 765 b 375 54 789 228 626 54 l 242 78 l 328 897 z "},"Đ":{"ha":918,"x_min":0,"x_max":0,"o":"m 121 940 l 244 901 l 203 511 l 10 514 l 4 458 l 197 461 l 157 76 l 18 32 l 24 0 l 342 0 b 886 561 664 0 886 199 b 458 972 886 815 753 972 l 126 972 z m 285 463 l 536 458 l 542 514 l 290 510 l 288 510 l 328 897 l 453 918 b 789 565 728 904 789 765 b 375 54 789 228 626 54 l 242 78 l 282 463 z "},"E":{"ha":810,"x_min":0,"x_max":0,"o":"m 121 940 l 244 901 l 157 76 l 18 32 l 24 0 l 503 0 l 667 -14 l 732 290 l 700 300 l 606 76 l 238 50 l 282 468 l 503 461 l 532 319 l 565 325 l 600 658 l 568 664 l 510 522 l 286 515 l 329 924 l 663 897 l 742 693 l 772 701 l 725 986 l 563 972 l 126 972 z "},"É":{"ha":810,"x_min":0,"x_max":0,"o":"m 688 1169 l 629 1249 l 417 1036 l 436 1013 z m 121 940 l 244 901 l 157 76 l 18 32 l 24 0 l 503 0 l 667 -14 l 732 290 l 700 300 l 606 76 l 238 50 l 282 468 l 503 461 l 532 319 l 565 325 l 600 658 l 568 664 l 510 522 l 286 515 l 329 924 l 663 897 l 742 693 l 772 701 l 725 986 l 563 972 l 126 972 z "},"Ě":{"ha":810,"x_min":0,"x_max":0,"o":"m 269 1226 l 404 1042 l 499 1042 l 714 1225 l 694 1249 l 475 1107 l 299 1249 z m 121 940 l 244 901 l 157 76 l 18 32 l 24 0 l 503 0 l 667 -14 l 732 290 l 700 300 l 606 76 l 238 50 l 282 468 l 503 461 l 532 319 l 565 325 l 600 658 l 568 664 l 510 522 l 286 515 l 329 924 l 663 897 l 742 693 l 772 701 l 725 986 l 563 972 l 126 972 z "},"Ê":{"ha":810,"x_min":0,"x_max":0,"o":"m 682 1036 l 528 1221 l 433 1221 l 238 1038 l 260 1014 l 464 1156 l 656 1014 z m 121 940 l 244 901 l 157 76 l 18 32 l 24 0 l 503 0 l 667 -14 l 732 290 l 700 300 l 606 76 l 238 50 l 282 468 l 503 461 l 532 319 l 565 325 l 600 658 l 568 664 l 510 522 l 286 515 l 329 924 l 663 897 l 742 693 l 772 701 l 725 986 l 563 972 l 126 972 z "},"Ë":{"ha":810,"x_min":0,"x_max":0,"o":"m 400 1144 b 335 1213 400 1176 383 1213 b 269 1144 286 1213 269 1176 b 335 1076 269 1113 286 1076 b 400 1144 383 1076 400 1113 z m 672 1144 b 607 1213 672 1176 656 1213 b 542 1144 558 1213 542 1176 b 607 1076 542 1113 558 1076 b 672 1144 656 1076 672 1113 z m 121 940 l 244 901 l 157 76 l 18 32 l 24 0 l 503 0 l 667 -14 l 732 290 l 700 300 l 606 76 l 238 50 l 282 468 l 503 461 l 532 319 l 565 325 l 600 658 l 568 664 l 510 522 l 286 515 l 329 924 l 663 897 l 742 693 l 772 701 l 725 986 l 563 972 l 126 972 z "},"Ė":{"ha":810,"x_min":0,"x_max":0,"o":"m 551 1144 b 486 1213 551 1176 535 1213 b 421 1144 438 1213 421 1176 b 486 1076 421 1113 438 1076 b 551 1144 535 1076 551 1113 z m 121 940 l 244 901 l 157 76 l 18 32 l 24 0 l 503 0 l 667 -14 l 732 290 l 700 300 l 606 76 l 238 50 l 282 468 l 503 461 l 532 319 l 565 325 l 600 658 l 568 664 l 510 522 l 286 515 l 329 924 l 663 897 l 742 693 l 772 701 l 725 986 l 563 972 l 126 972 z "},"È":{"ha":810,"x_min":0,"x_max":0,"o":"m 553 1013 l 572 1036 l 367 1249 l 306 1169 z m 121 940 l 244 901 l 157 76 l 18 32 l 24 0 l 503 0 l 667 -14 l 732 290 l 700 300 l 606 76 l 238 50 l 282 468 l 503 461 l 532 319 l 565 325 l 600 658 l 568 664 l 510 522 l 286 515 l 329 924 l 663 897 l 742 693 l 772 701 l 725 986 l 563 972 l 126 972 z "},"Ē":{"ha":810,"x_min":0,"x_max":0,"o":"m 481 1092 l 689 1085 l 697 1150 l 486 1143 l 276 1150 l 268 1085 z m 121 940 l 244 901 l 157 76 l 18 32 l 24 0 l 503 0 l 667 -14 l 732 290 l 700 300 l 606 76 l 238 50 l 282 468 l 503 461 l 532 319 l 565 325 l 600 658 l 568 664 l 510 522 l 286 515 l 329 924 l 663 897 l 742 693 l 772 701 l 725 986 l 563 972 l 126 972 z "},"Ę":{"ha":810,"x_min":0,"x_max":0,"o":"m 614 -283 l 611 -250 b 476 -181 513 -265 476 -239 b 586 -7 476 -124 511 -64 l 667 -14 l 732 290 l 700 300 l 606 76 l 238 50 l 282 468 l 503 461 l 532 319 l 565 325 l 600 658 l 568 664 l 510 522 l 286 515 l 329 924 l 663 897 l 742 693 l 772 701 l 725 986 l 563 972 l 126 972 l 121 940 l 244 901 l 157 76 l 18 32 l 24 0 l 503 0 l 539 -3 b 396 -193 447 -71 403 -133 b 394 -208 394 -199 394 -203 b 504 -307 394 -269 436 -307 l 524 -307 b 614 -283 556 -304 586 -296 z "},"F":{"ha":724,"x_min":0,"x_max":0,"o":"m 119 940 l 244 901 l 157 76 l 18 32 l 24 0 l 421 0 l 426 32 l 240 74 l 279 440 l 500 433 l 531 292 l 563 297 l 597 631 l 567 636 l 507 494 l 283 488 l 329 922 l 621 897 l 700 693 l 731 701 l 683 986 l 521 972 l 125 972 z "},"G":{"ha":883,"x_min":0,"x_max":0,"o":"m 465 417 l 664 374 l 636 94 b 449 39 578 54 514 39 b 154 414 232 40 154 211 b 510 929 154 772 310 929 b 774 690 635 926 701 888 l 810 700 l 742 986 l 665 968 b 514 985 617 979 568 985 b 61 399 283 985 61 774 b 419 -15 61 179 164 -15 b 611 4 497 -15 551 -7 l 725 -14 l 731 201 l 750 379 l 867 417 l 861 449 l 468 449 z "},"Ğ":{"ha":883,"x_min":0,"x_max":0,"o":"m 739 1231 l 696 1235 b 553 1085 685 1135 631 1085 b 446 1235 472 1085 435 1129 l 363 1231 b 533 1026 346 1082 413 1026 b 739 1231 651 1026 725 1100 z m 465 417 l 664 374 l 636 94 b 449 39 578 54 514 39 b 154 414 232 40 154 211 b 510 929 154 772 310 929 b 774 690 635 926 701 888 l 810 700 l 742 986 l 665 968 b 514 985 617 979 568 985 b 61 399 283 985 61 774 b 419 -15 61 179 164 -15 b 611 4 497 -15 551 -7 l 725 -14 l 731 201 l 750 379 l 867 417 l 861 449 l 468 449 z "},"Ģ":{"ha":883,"x_min":0,"x_max":0,"o":"m 465 417 l 664 374 l 636 94 b 449 39 578 54 514 39 b 154 414 232 40 154 211 b 510 929 154 772 310 929 b 774 690 635 926 701 888 l 810 700 l 742 986 l 665 968 b 514 985 617 979 568 985 b 61 399 283 985 61 774 b 419 -15 61 179 164 -15 b 611 4 497 -15 551 -7 l 725 -14 l 731 201 l 750 379 l 867 417 l 861 449 l 468 449 z m 504 -136 b 446 -61 504 -92 483 -61 b 383 -154 407 -61 383 -92 l 431 -174 b 353 -339 425 -231 401 -283 l 379 -361 b 504 -136 457 -292 504 -225 z "},"H":{"ha":1056,"x_min":0,"x_max":0,"o":"m 967 32 l 843 71 l 931 896 l 1069 940 l 1064 972 l 731 972 l 725 940 l 849 901 l 810 543 l 543 539 l 289 543 l 326 896 l 465 940 l 460 972 l 126 972 l 121 940 l 244 901 l 157 76 l 18 32 l 24 0 l 357 0 l 363 32 l 239 71 l 283 485 l 538 489 l 804 485 l 761 76 l 622 32 l 628 0 l 961 0 z "},"I":{"ha":451,"x_min":0,"x_max":0,"o":"m 121 940 l 244 901 l 157 76 l 18 32 l 24 0 l 357 0 l 363 32 l 239 71 l 326 896 l 465 940 l 460 972 l 126 972 z "},"Í":{"ha":451,"x_min":0,"x_max":0,"o":"m 513 1169 l 454 1249 l 242 1036 l 261 1013 z m 121 940 l 244 901 l 157 76 l 18 32 l 24 0 l 357 0 l 363 32 l 239 71 l 326 896 l 465 940 l 460 972 l 126 972 z "},"Î":{"ha":451,"x_min":0,"x_max":0,"o":"m 507 1036 l 353 1221 l 258 1221 l 63 1038 l 85 1014 l 289 1156 l 481 1014 z m 121 940 l 244 901 l 157 76 l 18 32 l 24 0 l 357 0 l 363 32 l 239 71 l 326 896 l 465 940 l 460 972 l 126 972 z "},"Ï":{"ha":451,"x_min":0,"x_max":0,"o":"m 225 1144 b 160 1213 225 1176 208 1213 b 94 1144 111 1213 94 1176 b 160 1076 94 1113 111 1076 b 225 1144 208 1076 225 1113 z m 497 1144 b 432 1213 497 1176 481 1213 b 367 1144 383 1213 367 1176 b 432 1076 367 1113 383 1076 b 497 1144 481 1076 497 1113 z m 121 940 l 244 901 l 157 76 l 18 32 l 24 0 l 357 0 l 363 32 l 239 71 l 326 896 l 465 940 l 460 972 l 126 972 z "},"İ":{"ha":451,"x_min":0,"x_max":0,"o":"m 376 1144 b 311 1213 376 1176 360 1213 b 246 1144 263 1213 246 1176 b 311 1076 246 1113 263 1076 b 376 1144 360 1076 376 1113 z m 121 940 l 244 901 l 157 76 l 18 32 l 24 0 l 357 0 l 363 32 l 239 71 l 326 896 l 465 940 l 460 972 l 126 972 z "},"Ì":{"ha":451,"x_min":0,"x_max":0,"o":"m 378 1013 l 397 1036 l 192 1249 l 131 1169 z m 121 940 l 244 901 l 157 76 l 18 32 l 24 0 l 357 0 l 363 32 l 239 71 l 326 896 l 465 940 l 460 972 l 126 972 z "},"Ī":{"ha":451,"x_min":0,"x_max":0,"o":"m 306 1092 l 514 1085 l 522 1150 l 311 1143 l 101 1150 l 93 1085 z m 121 940 l 244 901 l 157 76 l 18 32 l 24 0 l 357 0 l 363 32 l 239 71 l 326 896 l 465 940 l 460 972 l 126 972 z "},"Į":{"ha":451,"x_min":0,"x_max":0,"o":"m 246 -283 l 243 -250 b 108 -181 144 -265 108 -239 b 228 0 108 -121 146 -60 l 357 0 l 363 32 l 239 71 l 326 896 l 465 940 l 460 972 l 126 972 l 121 940 l 244 901 l 157 76 l 18 32 l 24 0 l 175 0 b 28 -193 81 -69 35 -133 b 26 -208 26 -199 26 -203 b 136 -307 26 -269 68 -307 l 156 -307 b 246 -283 188 -304 218 -296 z "},"J":{"ha":444,"x_min":0,"x_max":0,"o":"m 113 940 l 236 901 l 190 415 b 185 354 189 394 186 375 b 88 -122 163 113 139 1 l -97 -218 l -65 -306 b 144 -125 25 -262 94 -207 b 196 -21 164 -94 181 -61 b 279 450 231 74 258 208 b 290 563 283 488 286 525 l 321 897 l 367 911 l 458 940 l 453 972 l 118 972 z "},"K":{"ha":879,"x_min":0,"x_max":0,"o":"m 594 932 l 703 903 l 592 764 l 282 467 l 326 896 l 465 940 l 460 972 l 126 972 l 121 940 l 244 901 l 157 76 l 18 32 l 24 0 l 357 0 l 363 32 l 239 71 l 276 417 l 390 500 l 540 200 l 571 140 l 628 -14 l 803 0 l 813 29 l 717 69 l 446 547 l 829 906 l 929 940 l 924 972 l 601 972 z "},"Ķ":{"ha":879,"x_min":0,"x_max":0,"o":"m 594 932 l 703 903 l 592 764 l 282 467 l 326 896 l 465 940 l 460 972 l 126 972 l 121 940 l 244 901 l 157 76 l 18 32 l 24 0 l 357 0 l 363 32 l 239 71 l 276 417 l 390 500 l 540 200 l 571 140 l 628 -14 l 803 0 l 813 29 l 717 69 l 446 547 l 829 906 l 929 940 l 924 972 l 601 972 z m 486 -136 b 428 -61 486 -92 465 -61 b 365 -154 389 -61 365 -92 l 413 -174 b 335 -339 407 -231 383 -283 l 361 -361 b 486 -136 439 -292 486 -225 z "},"L":{"ha":735,"x_min":0,"x_max":0,"o":"m 121 940 l 244 901 l 157 76 l 18 32 l 24 0 l 475 0 l 639 -14 l 704 290 l 672 300 l 578 76 l 238 51 l 326 897 l 524 940 l 518 972 l 126 972 z "},"Ĺ":{"ha":735,"x_min":0,"x_max":0,"o":"m 542 1169 l 483 1249 l 271 1036 l 290 1013 z m 121 940 l 244 901 l 157 76 l 18 32 l 24 0 l 475 0 l 639 -14 l 704 290 l 672 300 l 578 76 l 238 51 l 326 897 l 524 940 l 518 972 l 126 972 z "},"Ľ":{"ha":757,"x_min":0,"x_max":0,"o":"m 719 975 b 661 1050 719 1019 699 1050 b 599 957 622 1050 599 1019 l 646 938 b 568 772 640 881 617 828 l 594 750 b 719 975 672 819 719 886 z m 121 940 l 244 901 l 157 76 l 18 32 l 24 0 l 475 0 l 639 -14 l 704 290 l 672 300 l 578 76 l 238 51 l 326 897 l 524 940 l 518 972 l 126 972 z "},"Ļ":{"ha":735,"x_min":0,"x_max":0,"o":"m 121 940 l 244 901 l 157 76 l 18 32 l 24 0 l 475 0 l 639 -14 l 704 290 l 672 300 l 578 76 l 238 51 l 326 897 l 524 940 l 518 972 l 126 972 z m 468 -136 b 410 -61 468 -92 447 -61 b 347 -154 371 -61 347 -92 l 394 -174 b 317 -339 389 -231 365 -283 l 343 -361 b 468 -136 421 -292 468 -225 z "},"Ł":{"ha":735,"x_min":0,"x_max":0,"o":"m 288 463 l 538 597 l 504 653 l 286 513 l 326 897 l 524 940 l 518 972 l 126 972 l 121 940 l 244 901 l 199 464 l 25 372 l 56 318 l 192 403 l 157 76 l 18 32 l 24 0 l 475 0 l 639 -14 l 704 290 l 672 300 l 578 76 l 238 51 l 281 458 z "},"M":{"ha":1197,"x_min":0,"x_max":0,"o":"m 1150 32 l 1019 74 l 1026 899 l 1158 940 l 1153 972 l 926 972 l 876 833 l 594 231 l 436 833 l 417 972 l 208 972 l 203 940 l 314 906 l 111 72 l -17 32 l -11 0 l 388 0 l 393 32 l 207 74 l 232 278 l 349 850 l 539 119 l 601 128 l 944 853 l 928 74 l 738 32 l 743 0 l 1144 0 z "},"N":{"ha":1015,"x_min":0,"x_max":0,"o":"m 646 940 l 835 899 l 825 697 l 769 126 l 393 833 l 339 972 l 140 972 l 135 940 l 258 901 l 192 278 l 161 78 l 18 32 l 24 0 l 421 0 l 426 32 l 238 74 l 249 278 l 307 825 l 746 -8 l 808 0 l 882 697 l 913 896 l 1029 940 l 1024 972 l 651 972 z "},"Ń":{"ha":1015,"x_min":0,"x_max":0,"o":"m 826 1169 l 768 1249 l 556 1036 l 575 1013 z m 646 940 l 835 899 l 825 697 l 769 126 l 393 833 l 339 972 l 140 972 l 135 940 l 258 901 l 192 278 l 161 78 l 18 32 l 24 0 l 421 0 l 426 32 l 238 74 l 249 278 l 307 825 l 746 -8 l 808 0 l 882 697 l 913 896 l 1029 940 l 1024 972 l 651 972 z "},"Ň":{"ha":1015,"x_min":0,"x_max":0,"o":"m 408 1226 l 543 1042 l 638 1042 l 853 1225 l 833 1249 l 614 1107 l 438 1249 z m 646 940 l 835 899 l 825 697 l 769 126 l 393 833 l 339 972 l 140 972 l 135 940 l 258 901 l 192 278 l 161 78 l 18 32 l 24 0 l 421 0 l 426 32 l 238 74 l 249 278 l 307 825 l 746 -8 l 808 0 l 882 697 l 913 896 l 1029 940 l 1024 972 l 651 972 z "},"Ņ":{"ha":1015,"x_min":0,"x_max":0,"o":"m 646 940 l 835 899 l 825 697 l 769 126 l 393 833 l 339 972 l 140 972 l 135 940 l 258 901 l 192 278 l 161 78 l 18 32 l 24 0 l 421 0 l 426 32 l 238 74 l 249 278 l 307 825 l 746 -8 l 808 0 l 882 697 l 913 896 l 1029 940 l 1024 972 l 651 972 z m 607 -136 b 549 -61 607 -92 586 -61 b 486 -154 510 -61 486 -92 l 533 -174 b 456 -339 528 -231 504 -283 l 482 -361 b 607 -136 560 -292 607 -225 z "},"Ñ":{"ha":1015,"x_min":0,"x_max":0,"o":"m 867 1194 l 831 1208 b 739 1113 806 1149 779 1113 b 646 1161 710 1113 690 1126 b 529 1215 597 1199 568 1215 b 386 1056 474 1215 418 1168 l 422 1042 b 514 1138 447 1101 474 1138 b 607 1089 543 1138 563 1124 b 724 1035 656 1051 683 1035 b 867 1194 779 1035 835 1082 z m 646 940 l 835 899 l 825 697 l 769 126 l 393 833 l 339 972 l 140 972 l 135 940 l 258 901 l 192 278 l 161 78 l 18 32 l 24 0 l 421 0 l 426 32 l 238 74 l 249 278 l 307 825 l 746 -8 l 808 0 l 882 697 l 913 896 l 1029 940 l 1024 972 l 651 972 z "},"O":{"ha":904,"x_min":0,"x_max":0,"o":"m 874 574 b 521 989 874 793 771 989 b 61 399 278 989 61 767 b 414 -17 61 179 164 -17 b 874 574 657 -17 874 206 z m 154 414 b 500 933 154 754 324 933 b 781 558 689 933 781 775 b 435 39 781 218 611 39 b 154 414 246 39 154 197 z "},"Ó":{"ha":904,"x_min":0,"x_max":0,"o":"m 740 1169 l 682 1249 l 469 1036 l 489 1013 z m 874 574 b 521 989 874 793 771 989 b 61 399 278 989 61 767 b 414 -17 61 179 164 -17 b 874 574 657 -17 874 206 z m 154 414 b 500 933 154 754 324 933 b 781 558 689 933 781 775 b 435 39 781 218 611 39 b 154 414 246 39 154 197 z "},"Ô":{"ha":904,"x_min":0,"x_max":0,"o":"m 735 1036 l 581 1221 l 486 1221 l 290 1038 l 313 1014 l 517 1156 l 708 1014 z m 874 574 b 521 989 874 793 771 989 b 61 399 278 989 61 767 b 414 -17 61 179 164 -17 b 874 574 657 -17 874 206 z m 154 414 b 500 933 154 754 324 933 b 781 558 689 933 781 775 b 435 39 781 218 611 39 b 154 414 246 39 154 197 z "},"Ö":{"ha":904,"x_min":0,"x_max":0,"o":"m 453 1144 b 388 1213 453 1176 436 1213 b 322 1144 339 1213 322 1176 b 388 1076 322 1113 339 1076 b 453 1144 436 1076 453 1113 z m 725 1144 b 660 1213 725 1176 708 1213 b 594 1144 611 1213 594 1176 b 660 1076 594 1113 611 1076 b 725 1144 708 1076 725 1113 z m 874 574 b 521 989 874 793 771 989 b 61 399 278 989 61 767 b 414 -17 61 179 164 -17 b 874 574 657 -17 874 206 z m 154 414 b 500 933 154 754 324 933 b 781 558 689 933 781 775 b 435 39 781 218 611 39 b 154 414 246 39 154 197 z "},"Ò":{"ha":904,"x_min":0,"x_max":0,"o":"m 606 1013 l 625 1036 l 419 1249 l 358 1169 z m 874 574 b 521 989 874 793 771 989 b 61 399 278 989 61 767 b 414 -17 61 179 164 -17 b 874 574 657 -17 874 206 z m 154 414 b 500 933 154 754 324 933 b 781 558 689 933 781 775 b 435 39 781 218 611 39 b 154 414 246 39 154 197 z "},"Ő":{"ha":904,"x_min":0,"x_max":0,"o":"m 615 1186 l 563 1247 l 350 1036 l 369 1014 z m 907 1186 l 856 1247 l 643 1036 l 661 1014 z m 874 574 b 521 989 874 793 771 989 b 61 399 278 989 61 767 b 414 -17 61 179 164 -17 b 874 574 657 -17 874 206 z m 154 414 b 500 933 154 754 324 933 b 781 558 689 933 781 775 b 435 39 781 218 611 39 b 154 414 246 39 154 197 z "},"Ō":{"ha":904,"x_min":0,"x_max":0,"o":"m 533 1092 l 742 1085 l 750 1150 l 539 1143 l 329 1150 l 321 1085 z m 874 574 b 521 989 874 793 771 989 b 61 399 278 989 61 767 b 414 -17 61 179 164 -17 b 874 574 657 -17 874 206 z m 154 414 b 500 933 154 754 324 933 b 781 558 689 933 781 775 b 435 39 781 218 611 39 b 154 414 246 39 154 197 z "},"Ø":{"ha":904,"x_min":0,"x_max":0,"o":"m 874 574 b 796 856 874 682 849 782 l 913 1000 l 844 1051 l 747 910 b 521 989 692 960 617 989 b 275 904 432 989 347 960 b 61 399 149 808 61 633 b 142 111 61 288 88 186 l 26 -28 l 99 -85 l 194 56 b 414 -17 249 10 322 -17 b 660 68 503 -17 588 13 b 874 574 786 164 874 339 z m 154 414 b 500 933 154 754 324 933 b 700 842 588 933 654 899 l 643 757 l 621 728 l 268 267 l 246 238 l 201 183 b 154 414 169 246 154 325 z m 294 203 l 668 693 l 690 722 l 738 782 b 781 558 767 721 781 644 b 435 39 781 218 611 39 b 240 124 351 39 286 69 z "},"Õ":{"ha":904,"x_min":0,"x_max":0,"o":"m 781 1194 l 744 1208 b 653 1113 719 1149 693 1113 b 560 1161 624 1113 604 1126 b 443 1215 511 1199 482 1215 b 300 1056 388 1215 332 1168 l 336 1042 b 428 1138 361 1101 388 1138 b 521 1089 457 1138 476 1124 b 638 1035 569 1051 597 1035 b 781 1194 693 1035 749 1082 z m 874 574 b 521 989 874 793 771 989 b 61 399 278 989 61 767 b 414 -17 61 179 164 -17 b 874 574 657 -17 874 206 z m 154 414 b 500 933 154 754 324 933 b 781 558 689 933 781 775 b 435 39 781 218 611 39 b 154 414 246 39 154 197 z "},"Œ":{"ha":1226,"x_min":0,"x_max":0,"o":"m 1083 -14 l 1149 290 l 1117 300 l 1022 76 l 654 50 l 699 468 l 919 461 l 949 319 l 982 325 l 1017 658 l 985 664 l 926 522 l 703 515 l 746 924 l 1079 897 l 1158 693 l 1189 701 l 1142 986 l 979 972 l 736 972 b 521 992 685 972 607 992 b 61 399 283 992 61 776 b 414 -19 61 176 164 -19 b 635 0 485 -19 551 0 l 919 0 z m 154 414 b 500 936 154 775 310 936 b 658 886 563 936 617 919 l 572 71 b 435 36 532 49 486 36 b 154 414 232 36 154 208 z "},"P":{"ha":749,"x_min":0,"x_max":0,"o":"m 121 940 l 244 901 l 157 76 l 111 61 l 18 32 l 24 0 l 421 0 l 426 32 l 240 74 l 274 399 b 383 390 311 393 349 390 b 742 729 569 390 742 506 b 456 972 742 911 610 972 l 126 972 z m 431 922 b 644 729 574 924 644 860 b 376 449 644 535 521 449 b 346 450 367 449 356 449 b 281 461 325 451 303 456 l 328 910 z "},"Þ":{"ha":744,"x_min":0,"x_max":0,"o":"m 121 940 l 244 901 l 157 76 l 111 61 l 18 32 l 24 0 l 360 0 l 365 32 l 242 71 l 257 206 b 360 199 292 201 326 199 b 718 538 546 199 718 314 b 432 781 718 719 586 781 l 317 781 l 329 896 l 468 940 l 463 972 l 126 972 z m 407 731 b 621 538 550 732 621 668 b 353 257 621 343 497 257 b 263 268 325 257 294 260 l 311 719 z "},"Q":{"ha":904,"x_min":0,"x_max":0,"o":"m 764 -183 b 467 -12 646 -149 547 -100 b 874 574 688 17 874 232 b 521 989 874 793 771 989 b 61 399 278 989 61 767 b 414 -17 61 179 164 -17 l 419 -17 b 715 -278 496 -168 597 -244 z m 154 414 b 500 933 154 754 324 933 b 781 558 689 933 781 775 b 435 39 781 218 611 39 b 154 414 246 39 154 197 z "},"R":{"ha":818,"x_min":0,"x_max":0,"o":"m 121 940 l 244 901 l 157 76 l 111 61 l 18 32 l 24 0 l 358 0 l 364 32 l 239 71 l 279 446 b 371 440 308 443 339 440 l 525 140 l 583 -14 l 764 0 l 772 32 l 665 68 l 454 447 b 721 749 589 471 721 568 b 444 972 721 893 608 972 l 126 972 z m 431 922 b 629 736 571 922 629 850 b 386 493 629 578 535 493 b 354 494 376 493 365 493 b 285 501 332 496 308 497 l 328 910 z "},"Ŕ":{"ha":818,"x_min":0,"x_max":0,"o":"m 671 1169 l 613 1249 l 400 1036 l 419 1013 z m 121 940 l 244 901 l 157 76 l 111 61 l 18 32 l 24 0 l 358 0 l 364 32 l 239 71 l 279 446 b 371 440 308 443 339 440 l 525 140 l 583 -14 l 764 0 l 772 32 l 665 68 l 454 447 b 721 749 589 471 721 568 b 444 972 721 893 608 972 l 126 972 z m 431 922 b 629 736 571 922 629 850 b 386 493 629 578 535 493 b 354 494 376 493 365 493 b 285 501 332 496 308 497 l 328 910 z "},"Ř":{"ha":818,"x_min":0,"x_max":0,"o":"m 253 1226 l 388 1042 l 482 1042 l 697 1225 l 678 1249 l 458 1107 l 282 1249 z m 121 940 l 244 901 l 157 76 l 111 61 l 18 32 l 24 0 l 358 0 l 364 32 l 239 71 l 279 446 b 371 440 308 443 339 440 l 525 140 l 583 -14 l 764 0 l 772 32 l 665 68 l 454 447 b 721 749 589 471 721 568 b 444 972 721 893 608 972 l 126 972 z m 431 922 b 629 736 571 922 629 850 b 386 493 629 578 535 493 b 354 494 376 493 365 493 b 285 501 332 496 308 497 l 328 910 z "},"Ŗ":{"ha":818,"x_min":0,"x_max":0,"o":"m 121 940 l 244 901 l 157 76 l 111 61 l 18 32 l 24 0 l 358 0 l 364 32 l 239 71 l 279 446 b 371 440 308 443 339 440 l 525 140 l 583 -14 l 764 0 l 772 32 l 665 68 l 454 447 b 721 749 589 471 721 568 b 444 972 721 893 608 972 l 126 972 z m 431 922 b 629 736 571 922 629 850 b 386 493 629 578 535 493 b 354 494 376 493 365 493 b 285 501 332 496 308 497 l 328 910 z m 474 -136 b 415 -61 474 -92 453 -61 b 353 -154 376 -61 353 -92 l 400 -174 b 322 -339 394 -231 371 -283 l 349 -361 b 474 -136 426 -292 474 -225 z "},"S":{"ha":681,"x_min":0,"x_max":0,"o":"m 172 3 b 315 -14 219 -7 264 -14 b 613 221 481 -14 613 69 b 378 540 613 325 579 408 b 213 769 250 624 213 685 b 383 929 213 872 279 929 b 633 689 504 929 565 879 l 669 700 l 601 986 l 525 968 b 413 985 490 978 456 985 b 131 747 225 985 131 878 b 325 476 131 639 178 569 b 525 213 501 365 525 294 b 319 42 525 92 442 42 b 92 278 204 42 132 92 l 56 271 l 96 -15 z "},"Ś":{"ha":681,"x_min":0,"x_max":0,"o":"m 640 1169 l 582 1249 l 369 1036 l 389 1013 z m 172 3 b 315 -14 219 -7 264 -14 b 613 221 481 -14 613 69 b 378 540 613 325 579 408 b 213 769 250 624 213 685 b 383 929 213 872 279 929 b 633 689 504 929 565 879 l 669 700 l 601 986 l 525 968 b 413 985 490 978 456 985 b 131 747 225 985 131 878 b 325 476 131 639 178 569 b 525 213 501 365 525 294 b 319 42 525 92 442 42 b 92 278 204 42 132 92 l 56 271 l 96 -15 z "},"Š":{"ha":681,"x_min":0,"x_max":0,"o":"m 222 1226 l 357 1042 l 451 1042 l 667 1225 l 647 1249 l 428 1107 l 251 1249 z m 172 3 b 315 -14 219 -7 264 -14 b 613 221 481 -14 613 69 b 378 540 613 325 579 408 b 213 769 250 624 213 685 b 383 929 213 872 279 929 b 633 689 504 929 565 879 l 669 700 l 601 986 l 525 968 b 413 985 490 978 456 985 b 131 747 225 985 131 878 b 325 476 131 639 178 569 b 525 213 501 365 525 294 b 319 42 525 92 442 42 b 92 278 204 42 132 92 l 56 271 l 96 -15 z "},"Ş":{"ha":681,"x_min":0,"x_max":0,"o":"m 172 3 b 286 -12 210 -6 246 -11 l 238 -108 b 356 -175 326 -103 356 -132 b 257 -293 356 -219 324 -256 l 274 -321 b 438 -156 375 -282 438 -228 b 314 -71 438 -93 389 -64 l 336 -14 b 613 221 492 -7 613 76 b 378 540 613 325 579 408 b 213 769 250 624 213 685 b 383 929 213 872 279 929 b 633 689 504 929 565 879 l 669 700 l 601 986 l 525 968 b 413 985 490 978 456 985 b 131 747 225 985 131 878 b 325 476 131 639 178 569 b 525 213 501 365 525 294 b 319 42 525 92 442 42 b 92 278 204 42 132 92 l 56 271 l 96 -15 z "},"Ș":{"ha":681,"x_min":0,"x_max":0,"o":"m 172 3 b 315 -14 219 -7 264 -14 b 613 221 481 -14 613 69 b 378 540 613 325 579 408 b 213 769 250 624 213 685 b 383 929 213 872 279 929 b 633 689 504 929 565 879 l 669 700 l 601 986 l 525 968 b 413 985 490 978 456 985 b 131 747 225 985 131 878 b 325 476 131 639 178 569 b 525 213 501 365 525 294 b 319 42 525 92 442 42 b 92 278 204 42 132 92 l 56 271 l 96 -15 z m 385 -136 b 326 -61 385 -92 364 -61 b 264 -154 288 -61 264 -92 l 311 -174 b 233 -339 306 -231 282 -283 l 260 -361 b 385 -136 338 -292 385 -225 z "},"T":{"ha":832,"x_min":0,"x_max":0,"o":"m 626 32 l 435 75 l 522 922 l 768 910 l 833 672 l 868 682 l 863 986 l 696 972 l 278 972 l 117 986 l 36 682 l 68 672 l 193 910 l 439 922 l 351 75 l 158 32 l 164 0 l 621 0 z "},"Ť":{"ha":832,"x_min":0,"x_max":0,"o":"m 310 1226 l 444 1042 l 539 1042 l 754 1225 l 735 1249 l 515 1107 l 339 1249 z m 626 32 l 435 75 l 522 922 l 768 910 l 833 672 l 868 682 l 863 986 l 696 972 l 278 972 l 117 986 l 36 682 l 68 672 l 193 910 l 439 922 l 351 75 l 158 32 l 164 0 l 621 0 z "},"Ţ":{"ha":832,"x_min":0,"x_max":0,"o":"m 506 -156 b 382 -71 506 -93 457 -64 l 410 0 l 621 0 l 626 32 l 435 75 l 522 922 l 768 910 l 833 672 l 868 682 l 863 986 l 696 972 l 278 972 l 117 986 l 36 682 l 68 672 l 193 910 l 439 922 l 351 75 l 158 32 l 164 0 l 360 0 l 306 -108 b 424 -175 394 -103 424 -132 b 325 -293 424 -219 392 -256 l 342 -321 b 506 -156 443 -282 506 -228 z "},"Ț":{"ha":832,"x_min":0,"x_max":0,"o":"m 626 32 l 435 75 l 522 922 l 768 910 l 833 672 l 868 682 l 863 986 l 696 972 l 278 972 l 117 986 l 36 682 l 68 672 l 193 910 l 439 922 l 351 75 l 158 32 l 164 0 l 621 0 z m 453 -136 b 394 -61 453 -92 432 -61 b 332 -154 356 -61 332 -92 l 379 -174 b 301 -339 374 -231 350 -283 l 328 -361 b 453 -136 406 -292 453 -225 z "},"U":{"ha":947,"x_min":0,"x_max":0,"o":"m 804 558 l 815 678 l 854 894 l 972 940 l 967 972 l 643 972 l 638 940 l 763 901 l 756 678 l 731 417 b 443 44 706 150 606 44 b 232 419 283 44 200 125 l 282 894 l 425 940 l 419 972 l 108 972 l 103 940 l 200 903 l 147 404 b 411 -14 114 86 222 -14 b 804 558 704 -14 769 197 z "},"Ú":{"ha":947,"x_min":0,"x_max":0,"o":"m 751 1169 l 693 1249 l 481 1036 l 500 1013 z m 804 558 l 815 678 l 854 894 l 972 940 l 967 972 l 643 972 l 638 940 l 763 901 l 756 678 l 731 417 b 443 44 706 150 606 44 b 232 419 283 44 200 125 l 282 894 l 425 940 l 419 972 l 108 972 l 103 940 l 200 903 l 147 404 b 411 -14 114 86 222 -14 b 804 558 704 -14 769 197 z "},"Û":{"ha":947,"x_min":0,"x_max":0,"o":"m 746 1036 l 592 1221 l 497 1221 l 301 1038 l 324 1014 l 528 1156 l 719 1014 z m 804 558 l 815 678 l 854 894 l 972 940 l 967 972 l 643 972 l 638 940 l 763 901 l 756 678 l 731 417 b 443 44 706 150 606 44 b 232 419 283 44 200 125 l 282 894 l 425 940 l 419 972 l 108 972 l 103 940 l 200 903 l 147 404 b 411 -14 114 86 222 -14 b 804 558 704 -14 769 197 z "},"Ü":{"ha":947,"x_min":0,"x_max":0,"o":"m 464 1144 b 399 1213 464 1176 447 1213 b 333 1144 350 1213 333 1176 b 399 1076 333 1113 350 1076 b 464 1144 447 1076 464 1113 z m 736 1144 b 671 1213 736 1176 719 1213 b 606 1144 622 1213 606 1176 b 671 1076 606 1113 622 1076 b 736 1144 719 1076 736 1113 z m 804 558 l 815 678 l 854 894 l 972 940 l 967 972 l 643 972 l 638 940 l 763 901 l 756 678 l 731 417 b 443 44 706 150 606 44 b 232 419 283 44 200 125 l 282 894 l 425 940 l 419 972 l 108 972 l 103 940 l 200 903 l 147 404 b 411 -14 114 86 222 -14 b 804 558 704 -14 769 197 z "},"Ù":{"ha":947,"x_min":0,"x_max":0,"o":"m 617 1013 l 636 1036 l 431 1249 l 369 1169 z m 804 558 l 815 678 l 854 894 l 972 940 l 967 972 l 643 972 l 638 940 l 763 901 l 756 678 l 731 417 b 443 44 706 150 606 44 b 232 419 283 44 200 125 l 282 894 l 425 940 l 419 972 l 108 972 l 103 940 l 200 903 l 147 404 b 411 -14 114 86 222 -14 b 804 558 704 -14 769 197 z "},"Ű":{"ha":947,"x_min":0,"x_max":0,"o":"m 626 1186 l 574 1247 l 361 1036 l 381 1014 z m 918 1186 l 867 1247 l 654 1036 l 672 1014 z m 804 558 l 815 678 l 854 894 l 972 940 l 967 972 l 643 972 l 638 940 l 763 901 l 756 678 l 731 417 b 443 44 706 150 606 44 b 232 419 283 44 200 125 l 282 894 l 425 940 l 419 972 l 108 972 l 103 940 l 200 903 l 147 404 b 411 -14 114 86 222 -14 b 804 558 704 -14 769 197 z "},"Ū":{"ha":947,"x_min":0,"x_max":0,"o":"m 544 1092 l 753 1085 l 761 1150 l 550 1143 l 340 1150 l 332 1085 z m 804 558 l 815 678 l 854 894 l 972 940 l 967 972 l 643 972 l 638 940 l 763 901 l 756 678 l 731 417 b 443 44 706 150 606 44 b 232 419 283 44 200 125 l 282 894 l 425 940 l 419 972 l 108 972 l 103 940 l 200 903 l 147 404 b 411 -14 114 86 222 -14 b 804 558 704 -14 769 197 z "},"Ų":{"ha":947,"x_min":0,"x_max":0,"o":"m 532 -283 l 529 -250 b 394 -181 431 -265 394 -239 b 508 -4 394 -122 429 -62 b 804 558 719 40 774 242 l 815 678 l 854 894 l 972 940 l 967 972 l 643 972 l 638 940 l 763 901 l 756 678 l 731 417 b 443 44 706 150 606 44 b 232 419 283 44 200 125 l 282 894 l 425 940 l 419 972 l 108 972 l 103 940 l 200 903 l 147 404 b 411 -14 114 86 222 -14 b 443 -12 422 -14 433 -14 b 313 -208 353 -83 313 -147 b 422 -307 313 -269 354 -307 b 532 -283 461 -307 499 -299 z "},"Ů":{"ha":947,"x_min":0,"x_max":0,"o":"m 722 1150 b 556 1264 722 1224 660 1264 b 378 1139 451 1264 378 1221 b 544 1026 378 1068 440 1026 b 722 1150 649 1026 722 1071 z m 458 1142 b 554 1222 458 1190 489 1222 b 643 1147 610 1222 643 1190 b 546 1067 643 1097 611 1067 b 458 1142 492 1067 458 1097 z m 804 558 l 815 678 l 854 894 l 972 940 l 967 972 l 643 972 l 638 940 l 763 901 l 756 678 l 731 417 b 443 44 706 150 606 44 b 232 419 283 44 200 125 l 282 894 l 425 940 l 419 972 l 108 972 l 103 940 l 200 903 l 147 404 b 411 -14 114 86 222 -14 b 804 558 704 -14 769 197 z "},"V":{"ha":876,"x_min":0,"x_max":0,"o":"m 656 940 l 754 908 l 694 694 l 424 83 l 244 899 l 431 940 l 425 972 l 56 972 l 50 940 l 154 907 l 369 -12 l 429 -7 l 849 907 l 954 940 l 949 972 l 661 972 z "},"W":{"ha":1257,"x_min":0,"x_max":0,"o":"m 988 940 l 1118 899 l 1078 694 l 906 107 l 715 936 l 644 931 l 588 718 l 383 125 l 263 899 l 449 940 l 443 972 l 56 972 l 50 940 l 163 904 l 324 -12 l 389 -7 l 661 772 l 847 -12 l 913 -7 l 1225 906 l 1335 940 l 1329 972 l 993 972 z "},"X":{"ha":901,"x_min":0,"x_max":0,"o":"m 314 32 l 192 71 l 276 222 l 460 471 l 647 75 l 486 32 l 492 0 l 878 0 l 883 32 l 760 75 l 521 522 l 833 903 l 940 940 l 935 972 l 600 972 l 592 940 l 719 903 l 632 750 l 500 563 l 314 903 l 474 940 l 468 972 l 104 972 l 99 940 l 204 903 l 439 510 l 83 72 l -46 32 l -40 0 l 308 0 z "},"Y":{"ha":736,"x_min":0,"x_max":0,"o":"m 513 940 l 633 901 l 578 764 l 404 461 l 203 907 l 310 940 l 304 972 l 56 972 l 50 940 l 111 911 l 342 415 l 306 75 l 113 32 l 118 0 l 572 0 l 578 32 l 389 74 l 425 417 l 738 911 l 814 940 l 808 972 l 518 972 z "},"Ý":{"ha":736,"x_min":0,"x_max":0,"o":"m 644 1169 l 586 1249 l 374 1036 l 393 1013 z m 513 940 l 633 901 l 578 764 l 404 461 l 203 907 l 310 940 l 304 972 l 56 972 l 50 940 l 111 911 l 342 415 l 306 75 l 113 32 l 118 0 l 572 0 l 578 32 l 389 74 l 425 417 l 738 911 l 814 940 l 808 972 l 518 972 z "},"Ÿ":{"ha":736,"x_min":0,"x_max":0,"o":"m 357 1144 b 292 1213 357 1176 340 1213 b 226 1144 243 1213 226 1176 b 292 1076 226 1113 243 1076 b 357 1144 340 1076 357 1113 z m 629 1144 b 564 1213 629 1176 613 1213 b 499 1144 515 1213 499 1176 b 564 1076 499 1113 515 1076 b 629 1144 613 1076 629 1113 z m 513 940 l 633 901 l 578 764 l 404 461 l 203 907 l 310 940 l 304 972 l 56 972 l 50 940 l 111 911 l 342 415 l 306 75 l 113 32 l 118 0 l 572 0 l 578 32 l 389 74 l 425 417 l 738 911 l 814 940 l 808 972 l 518 972 z "},"Z":{"ha":750,"x_min":0,"x_max":0,"o":"m 642 -14 l 703 290 l 671 300 l 563 75 l 111 50 l 763 919 l 740 969 l 740 972 l 354 972 l 178 986 l 117 682 l 149 672 l 257 897 l 672 922 l 10 31 l 40 -28 l 225 -4 z "},"Ź":{"ha":750,"x_min":0,"x_max":0,"o":"m 689 1169 l 631 1249 l 418 1036 l 438 1013 z m 642 -14 l 703 290 l 671 300 l 563 75 l 111 50 l 763 919 l 740 969 l 740 972 l 354 972 l 178 986 l 117 682 l 149 672 l 257 897 l 672 922 l 10 31 l 40 -28 l 225 -4 z "},"Ž":{"ha":750,"x_min":0,"x_max":0,"o":"m 271 1226 l 406 1042 l 500 1042 l 715 1225 l 696 1249 l 476 1107 l 300 1249 z m 642 -14 l 703 290 l 671 300 l 563 75 l 111 50 l 763 919 l 740 969 l 740 972 l 354 972 l 178 986 l 117 682 l 149 672 l 257 897 l 672 922 l 10 31 l 40 -28 l 225 -4 z "},"Ż":{"ha":750,"x_min":0,"x_max":0,"o":"m 553 1144 b 488 1213 553 1176 536 1213 b 422 1144 439 1213 422 1176 b 488 1076 422 1113 439 1076 b 553 1144 536 1076 553 1113 z m 642 -14 l 703 290 l 671 300 l 563 75 l 111 50 l 763 919 l 740 969 l 740 972 l 354 972 l 178 986 l 117 682 l 149 672 l 257 897 l 672 922 l 10 31 l 40 -28 l 225 -4 z "},"a":{"ha":664,"x_min":0,"x_max":0,"o":"m 607 14 l 610 44 l 522 68 l 543 342 l 550 379 l 597 642 b 414 692 550 671 486 692 b 44 232 222 692 63 474 b 43 189 43 218 43 203 b 188 -14 43 49 106 -14 b 461 293 267 -14 356 56 b 442 128 454 238 449 183 b 435 46 438 93 435 68 b 439 -14 435 24 436 6 z m 125 203 b 379 631 125 435 247 631 b 496 586 428 631 467 617 l 478 429 b 458 374 471 410 464 392 b 221 60 376 160 289 63 b 125 203 156 58 125 110 z "},"á":{"ha":664,"x_min":0,"x_max":0,"o":"m 594 992 l 528 1056 l 326 788 l 349 768 z m 607 14 l 610 44 l 522 68 l 543 342 l 550 379 l 597 642 b 414 692 550 671 486 692 b 44 232 222 692 63 474 b 43 189 43 218 43 203 b 188 -14 43 49 106 -14 b 461 293 267 -14 356 56 b 442 128 454 238 449 183 b 435 46 438 93 435 68 b 439 -14 435 24 436 6 z m 125 203 b 379 631 125 435 247 631 b 496 586 428 631 467 617 l 478 429 b 458 374 471 410 464 392 b 221 60 376 160 289 63 b 125 203 156 58 125 110 z "},"ă":{"ha":664,"x_min":0,"x_max":0,"o":"m 607 1024 l 564 1028 b 415 826 547 886 493 826 b 300 1028 321 826 282 881 l 217 1024 b 393 768 193 833 257 768 b 607 1024 522 768 586 851 z m 607 14 l 610 44 l 522 68 l 543 342 l 550 379 l 597 642 b 414 692 550 671 486 692 b 44 232 222 692 63 474 b 43 189 43 218 43 203 b 188 -14 43 49 106 -14 b 461 293 267 -14 356 56 b 442 128 454 238 449 183 b 435 46 438 93 435 68 b 439 -14 435 24 436 6 z m 125 203 b 379 631 125 435 247 631 b 496 586 428 631 467 617 l 478 429 b 458 374 471 410 464 392 b 221 60 376 160 289 63 b 125 203 156 58 125 110 z "},"â":{"ha":664,"x_min":0,"x_max":0,"o":"m 614 783 l 486 1056 l 403 1056 l 214 786 l 242 767 l 425 989 l 586 767 z m 607 14 l 610 44 l 522 68 l 543 342 l 550 379 l 597 642 b 414 692 550 671 486 692 b 44 232 222 692 63 474 b 43 189 43 218 43 203 b 188 -14 43 49 106 -14 b 461 293 267 -14 356 56 b 442 128 454 238 449 183 b 435 46 438 93 435 68 b 439 -14 435 24 436 6 z m 125 203 b 379 631 125 435 247 631 b 496 586 428 631 467 617 l 478 429 b 458 374 471 410 464 392 b 221 60 376 160 289 63 b 125 203 156 58 125 110 z "},"ä":{"ha":664,"x_min":0,"x_max":0,"o":"m 343 899 b 278 967 343 931 326 967 b 213 899 229 967 213 931 b 278 831 213 867 229 831 b 343 899 326 831 343 867 z m 615 899 b 550 967 615 931 599 967 b 485 899 501 967 485 931 b 550 831 485 867 501 831 b 615 899 599 831 615 867 z m 607 14 l 610 44 l 522 68 l 543 342 l 550 379 l 597 642 b 414 692 550 671 486 692 b 44 232 222 692 63 474 b 43 189 43 218 43 203 b 188 -14 43 49 106 -14 b 461 293 267 -14 356 56 b 442 128 454 238 449 183 b 435 46 438 93 435 68 b 439 -14 435 24 436 6 z m 125 203 b 379 631 125 435 247 631 b 496 586 428 631 467 617 l 478 429 b 458 374 471 410 464 392 b 221 60 376 160 289 63 b 125 203 156 58 125 110 z "},"à":{"ha":664,"x_min":0,"x_max":0,"o":"m 490 768 l 513 788 l 311 1056 l 244 992 z m 607 14 l 610 44 l 522 68 l 543 342 l 550 379 l 597 642 b 414 692 550 671 486 692 b 44 232 222 692 63 474 b 43 189 43 218 43 203 b 188 -14 43 49 106 -14 b 461 293 267 -14 356 56 b 442 128 454 238 449 183 b 435 46 438 93 435 68 b 439 -14 435 24 436 6 z m 125 203 b 379 631 125 435 247 631 b 496 586 428 631 467 617 l 478 429 b 458 374 471 410 464 392 b 221 60 376 160 289 63 b 125 203 156 58 125 110 z "},"ā":{"ha":664,"x_min":0,"x_max":0,"o":"m 411 829 l 613 822 l 621 886 l 417 879 l 214 886 l 206 822 z m 607 14 l 610 44 l 522 68 l 543 342 l 550 379 l 597 642 b 414 692 550 671 486 692 b 44 232 222 692 63 474 b 43 189 43 218 43 203 b 188 -14 43 49 106 -14 b 461 293 267 -14 356 56 b 442 128 454 238 449 183 b 435 46 438 93 435 68 b 439 -14 435 24 436 6 z m 125 203 b 379 631 125 435 247 631 b 496 586 428 631 467 617 l 478 429 b 458 374 471 410 464 392 b 221 60 376 160 289 63 b 125 203 156 58 125 110 z "},"ą":{"ha":664,"x_min":0,"x_max":0,"o":"m 528 -283 l 525 -250 b 390 -181 426 -265 390 -239 b 507 -3 390 -122 426 -61 l 607 14 l 610 44 l 522 68 l 543 342 l 550 379 l 597 642 b 414 692 550 671 486 692 b 44 232 222 692 63 474 b 43 189 43 218 43 203 b 188 -14 43 49 106 -14 b 461 293 267 -14 356 56 b 442 128 454 238 449 183 b 435 46 438 93 435 68 b 439 -14 435 24 436 6 b 310 -193 356 -78 315 -137 b 308 -208 308 -199 308 -203 b 418 -307 308 -269 350 -307 l 438 -307 b 528 -283 469 -304 500 -296 z m 125 203 b 379 631 125 435 247 631 b 496 586 428 631 467 617 l 478 429 b 458 374 471 410 464 392 b 221 60 376 160 289 63 b 125 203 156 58 125 110 z "},"å":{"ha":664,"x_min":0,"x_max":0,"o":"m 592 936 b 457 1056 592 1008 539 1056 b 286 894 354 1056 286 992 b 422 767 286 818 339 767 b 592 936 524 767 592 835 z m 360 890 b 447 1017 360 965 396 1017 b 519 928 490 1017 519 982 b 431 806 519 854 483 806 b 360 890 389 806 360 840 z m 607 14 l 610 44 l 522 68 l 543 342 l 550 379 l 597 642 b 414 692 550 671 486 692 b 44 232 222 692 63 474 b 43 189 43 218 43 203 b 188 -14 43 49 106 -14 b 461 293 267 -14 356 56 b 442 128 454 238 449 183 b 435 46 438 93 435 68 b 439 -14 435 24 436 6 z m 125 203 b 379 631 125 435 247 631 b 496 586 428 631 467 617 l 478 429 b 458 374 471 410 464 392 b 221 60 376 160 289 63 b 125 203 156 58 125 110 z "},"ã":{"ha":664,"x_min":0,"x_max":0,"o":"m 325 914 b 417 868 361 914 382 897 b 522 814 456 836 483 814 b 696 993 581 814 638 857 l 664 1006 b 554 896 629 949 597 896 b 460 942 514 896 497 914 b 354 994 419 972 390 994 b 179 821 303 994 240 960 l 214 807 b 325 914 247 868 281 914 z m 607 14 l 610 44 l 522 68 l 543 342 l 550 379 l 597 642 b 414 692 550 671 486 692 b 44 232 222 692 63 474 b 43 189 43 218 43 203 b 188 -14 43 49 106 -14 b 461 293 267 -14 356 56 b 442 128 454 238 449 183 b 435 46 438 93 435 68 b 439 -14 435 24 436 6 z m 125 203 b 379 631 125 435 247 631 b 496 586 428 631 467 617 l 478 429 b 458 374 471 410 464 392 b 221 60 376 160 289 63 b 125 203 156 58 125 110 z "},"æ":{"ha":888,"x_min":0,"x_max":0,"o":"m 799 68 l 774 100 b 638 51 733 68 689 51 b 479 264 536 51 479 125 b 482 322 479 283 481 303 b 858 546 740 363 847 444 b 860 565 860 553 860 558 b 721 694 860 649 808 694 b 690 693 711 694 700 694 b 482 561 603 683 533 632 b 314 694 469 646 418 694 b 58 632 219 694 131 667 l 107 543 l 290 649 b 408 453 383 644 422 588 l 399 361 l 399 356 b 28 146 119 311 36 251 b 26 125 26 139 26 132 b 182 -14 26 42 83 -14 b 407 128 267 -14 338 26 b 617 -14 439 39 511 -14 b 799 68 688 -14 744 15 z m 692 635 b 767 561 740 635 767 604 b 765 538 767 553 767 546 b 488 371 751 456 664 403 b 692 635 508 514 575 635 z m 131 156 b 390 308 131 235 182 275 b 388 247 389 288 388 267 b 394 172 388 221 390 196 b 240 56 339 90 285 61 l 228 56 b 131 156 169 56 131 85 z "},"b":{"ha":685,"x_min":0,"x_max":0,"o":"m 642 489 b 497 692 642 629 579 692 b 200 363 404 692 310 618 l 257 849 l 315 1056 l 122 1024 l 117 992 l 190 965 l 181 764 l 119 278 l 78 36 b 257 -14 121 7 185 -14 b 642 489 474 -14 642 231 z m 464 618 b 560 475 529 619 560 568 b 292 47 560 243 438 47 b 174 92 243 47 204 61 l 186 226 b 464 618 271 492 374 617 z "},"c":{"ha":514,"x_min":0,"x_max":0,"o":"m 446 68 l 421 100 b 283 53 379 69 338 53 b 142 278 201 53 142 117 b 331 631 142 460 218 604 l 476 578 l 504 664 b 388 694 474 681 431 694 b 50 257 194 694 50 483 b 257 -14 50 85 132 -14 b 446 68 331 -14 383 8 z "},"ć":{"ha":514,"x_min":0,"x_max":0,"o":"m 560 992 l 493 1056 l 292 788 l 314 768 z m 446 68 l 421 100 b 283 53 379 69 338 53 b 142 278 201 53 142 117 b 331 631 142 460 218 604 l 476 578 l 504 664 b 388 694 474 681 431 694 b 50 257 194 694 50 483 b 257 -14 50 85 132 -14 b 446 68 331 -14 383 8 z "},"č":{"ha":514,"x_min":0,"x_max":0,"o":"m 179 1039 l 307 767 l 390 767 l 579 1036 l 551 1056 l 368 833 l 207 1056 z m 446 68 l 421 100 b 283 53 379 69 338 53 b 142 278 201 53 142 117 b 331 631 142 460 218 604 l 476 578 l 504 664 b 388 694 474 681 431 694 b 50 257 194 694 50 483 b 257 -14 50 85 132 -14 b 446 68 331 -14 383 8 z "},"ç":{"ha":514,"x_min":0,"x_max":0,"o":"m 388 -156 b 264 -71 388 -93 339 -64 l 288 -12 b 446 68 346 -7 392 17 l 421 100 b 283 53 379 69 338 53 b 142 278 201 53 142 117 b 331 631 142 460 218 604 l 476 578 l 504 664 b 388 694 474 681 431 694 b 50 257 194 694 50 483 b 236 -12 50 94 122 -3 l 188 -108 b 306 -175 276 -103 306 -132 b 207 -293 306 -219 274 -256 l 224 -321 b 388 -156 325 -282 388 -228 z "},"d":{"ha":686,"x_min":0,"x_max":0,"o":"m 613 14 l 615 44 l 535 67 l 540 278 l 554 388 l 607 828 l 611 864 l 665 1056 l 472 1024 l 467 992 l 543 965 l 531 763 b 519 681 526 733 524 707 b 461 690 503 685 483 689 b 428 692 450 692 439 692 b 44 232 224 692 63 474 b 43 189 43 218 43 203 b 188 -14 43 49 106 -14 b 468 278 276 -14 365 51 b 447 114 458 196 451 146 b 443 60 444 82 443 68 b 450 -14 443 35 444 15 z m 125 203 b 393 631 125 435 247 631 b 508 589 440 631 478 618 b 485 411 500 521 492 461 b 447 317 472 376 460 346 b 221 60 374 142 293 63 b 125 203 156 58 125 110 z "},"ð":{"ha":633,"x_min":0,"x_max":0,"o":"m 588 481 b 440 922 588 676 540 822 l 563 1028 l 513 1082 l 394 961 b 176 1056 336 1004 264 1036 l 165 1022 b 353 918 243 996 306 960 l 228 788 l 254 761 l 390 879 b 485 672 442 821 472 750 b 383 694 457 686 424 694 b 49 246 165 694 49 456 b 264 -14 49 88 131 -14 b 588 481 435 -14 588 147 z m 140 276 b 363 636 140 488 222 636 b 496 410 450 636 496 579 b 288 47 496 171 386 47 b 140 276 194 47 140 114 z "},"ď":{"ha":683,"x_min":0,"x_max":0,"o":"m 613 14 l 615 44 l 535 67 l 540 278 l 554 388 l 607 828 l 611 864 l 665 1056 l 472 1024 l 467 992 l 543 965 l 531 763 b 519 681 526 733 524 707 b 461 690 503 685 483 689 b 428 692 450 692 439 692 b 44 232 224 692 63 474 b 43 189 43 218 43 203 b 188 -14 43 49 106 -14 b 468 278 276 -14 365 51 b 447 114 458 196 451 146 b 443 60 444 82 443 68 b 450 -14 443 35 444 15 z m 824 975 b 765 1050 824 1019 803 1050 b 751 1049 761 1050 756 1050 b 703 957 721 1042 703 1011 l 750 938 b 672 772 744 881 721 828 l 699 750 b 824 975 776 819 824 886 z m 125 203 b 393 631 125 435 247 631 b 508 589 440 631 478 618 b 485 411 500 521 492 461 b 447 317 472 376 460 346 b 221 60 374 142 293 63 b 125 203 156 58 125 110 z "},"đ":{"ha":683,"x_min":0,"x_max":0,"o":"m 610 14 l 613 44 l 535 65 l 540 279 l 551 365 l 610 815 l 781 813 l 786 868 l 615 865 l 640 1057 l 531 1039 l 529 864 l 254 868 l 249 813 l 529 817 l 529 753 l 519 681 b 461 690 503 685 483 689 b 428 692 450 692 439 692 b 44 238 225 692 64 476 b 43 189 43 221 43 206 b 188 -14 43 49 106 -14 b 471 282 276 -14 367 53 b 461 208 468 257 464 233 b 443 44 447 93 443 67 b 447 -14 443 22 444 4 z m 125 203 b 393 631 125 435 247 631 b 508 588 440 631 479 618 l 488 415 b 443 304 474 375 458 338 b 221 60 369 139 292 63 b 125 203 156 58 125 110 z "},"e":{"ha":549,"x_min":0,"x_max":0,"o":"m 460 68 l 435 100 b 299 51 393 67 353 51 b 140 264 197 51 140 125 b 142 304 140 278 140 292 b 519 544 385 347 506 424 b 521 569 521 553 521 561 b 382 694 521 646 471 694 b 349 693 371 694 360 694 b 50 281 165 671 61 468 b 49 247 49 269 49 258 b 278 -14 49 88 131 -14 b 460 68 347 -14 406 13 z m 353 635 b 428 553 400 635 428 606 b 146 353 428 453 351 388 b 353 635 164 503 232 635 z "},"é":{"ha":549,"x_min":0,"x_max":0,"o":"m 561 992 l 494 1056 l 293 788 l 315 768 z m 460 68 l 435 100 b 299 51 393 67 353 51 b 140 264 197 51 140 125 b 142 304 140 278 140 292 b 519 544 385 347 506 424 b 521 569 521 553 521 561 b 382 694 521 646 471 694 b 349 693 371 694 360 694 b 50 281 165 671 61 468 b 49 247 49 269 49 258 b 278 -14 49 88 131 -14 b 460 68 347 -14 406 13 z m 353 635 b 428 553 400 635 428 606 b 146 353 428 453 351 388 b 353 635 164 503 232 635 z "},"ě":{"ha":549,"x_min":0,"x_max":0,"o":"m 181 1039 l 308 767 l 392 767 l 581 1036 l 553 1056 l 369 833 l 208 1056 z m 460 68 l 435 100 b 299 51 393 67 353 51 b 140 264 197 51 140 125 b 142 304 140 278 140 292 b 519 544 385 347 506 424 b 521 569 521 553 521 561 b 382 694 521 646 471 694 b 349 693 371 694 360 694 b 50 281 165 671 61 468 b 49 247 49 269 49 258 b 278 -14 49 88 131 -14 b 460 68 347 -14 406 13 z m 353 635 b 428 553 400 635 428 606 b 146 353 428 453 351 388 b 353 635 164 503 232 635 z "},"ê":{"ha":549,"x_min":0,"x_max":0,"o":"m 581 783 l 453 1056 l 369 1056 l 181 786 l 208 767 l 392 989 l 553 767 z m 460 68 l 435 100 b 299 51 393 67 353 51 b 140 264 197 51 140 125 b 142 304 140 278 140 292 b 519 544 385 347 506 424 b 521 569 521 553 521 561 b 382 694 521 646 471 694 b 349 693 371 694 360 694 b 50 281 165 671 61 468 b 49 247 49 269 49 258 b 278 -14 49 88 131 -14 b 460 68 347 -14 406 13 z m 353 635 b 428 553 400 635 428 606 b 146 353 428 453 351 388 b 353 635 164 503 232 635 z "},"ë":{"ha":549,"x_min":0,"x_max":0,"o":"m 310 899 b 244 967 310 931 293 967 b 179 899 196 967 179 931 b 244 831 179 867 196 831 b 310 899 293 831 310 867 z m 582 899 b 517 967 582 931 565 967 b 451 899 468 967 451 931 b 517 831 451 867 468 831 b 582 899 565 831 582 867 z m 460 68 l 435 100 b 299 51 393 67 353 51 b 140 264 197 51 140 125 b 142 304 140 278 140 292 b 519 544 385 347 506 424 b 521 569 521 553 521 561 b 382 694 521 646 471 694 b 349 693 371 694 360 694 b 50 281 165 671 61 468 b 49 247 49 269 49 258 b 278 -14 49 88 131 -14 b 460 68 347 -14 406 13 z m 353 635 b 428 553 400 635 428 606 b 146 353 428 453 351 388 b 353 635 164 503 232 635 z "},"ė":{"ha":549,"x_min":0,"x_max":0,"o":"m 443 907 b 381 975 443 944 422 975 b 318 907 339 975 318 944 b 381 839 318 869 339 839 b 443 907 422 839 443 869 z m 460 68 l 435 100 b 299 51 393 67 353 51 b 140 264 197 51 140 125 b 142 304 140 278 140 292 b 519 544 385 347 506 424 b 521 569 521 553 521 561 b 382 694 521 646 471 694 b 349 693 371 694 360 694 b 50 281 165 671 61 468 b 49 247 49 269 49 258 b 278 -14 49 88 131 -14 b 460 68 347 -14 406 13 z m 353 635 b 428 553 400 635 428 606 b 146 353 428 453 351 388 b 353 635 164 503 232 635 z "},"è":{"ha":549,"x_min":0,"x_max":0,"o":"m 457 768 l 479 788 l 278 1056 l 211 992 z m 460 68 l 435 100 b 299 51 393 67 353 51 b 140 264 197 51 140 125 b 142 304 140 278 140 292 b 519 544 385 347 506 424 b 521 569 521 553 521 561 b 382 694 521 646 471 694 b 349 693 371 694 360 694 b 50 281 165 671 61 468 b 49 247 49 269 49 258 b 278 -14 49 88 131 -14 b 460 68 347 -14 406 13 z m 353 635 b 428 553 400 635 428 606 b 146 353 428 453 351 388 b 353 635 164 503 232 635 z "},"ē":{"ha":549,"x_min":0,"x_max":0,"o":"m 378 829 l 579 822 l 588 886 l 383 879 l 181 886 l 172 822 z m 460 68 l 435 100 b 299 51 393 67 353 51 b 140 264 197 51 140 125 b 142 304 140 278 140 292 b 519 544 385 347 506 424 b 521 569 521 553 521 561 b 382 694 521 646 471 694 b 349 693 371 694 360 694 b 50 281 165 671 61 468 b 49 247 49 269 49 258 b 278 -14 49 88 131 -14 b 460 68 347 -14 406 13 z m 353 635 b 428 553 400 635 428 606 b 146 353 428 453 351 388 b 353 635 164 503 232 635 z "},"ę":{"ha":565,"x_min":0,"x_max":0,"o":"m 385 -283 l 382 -250 b 247 -181 283 -265 247 -239 b 386 13 247 -117 294 -40 b 404 25 393 17 399 21 b 460 68 424 36 442 50 l 435 100 b 324 53 401 74 365 57 b 299 51 315 51 307 51 b 140 264 197 51 140 125 b 142 304 140 278 140 292 b 519 539 388 347 507 418 b 521 561 521 546 521 554 b 382 694 521 646 471 694 b 354 693 372 694 364 694 b 51 301 175 675 69 485 b 49 247 50 283 49 265 b 296 -14 49 88 132 -21 b 165 -208 206 -83 165 -147 b 275 -307 165 -269 207 -307 b 385 -283 314 -307 351 -299 z m 353 635 b 428 553 400 635 428 606 b 146 351 428 451 350 388 b 353 635 165 515 240 635 z "},"f":{"ha":357,"x_min":0,"x_max":0,"o":"m 193 97 b 228 626 204 239 210 374 l 410 614 l 421 692 l 233 679 b 338 976 247 818 275 921 l 461 954 l 482 1042 b 415 1056 461 1050 442 1056 b 388 1053 406 1056 397 1054 b 157 708 281 1035 190 907 l 44 656 l 49 628 l 147 628 l 147 624 b 113 104 135 419 129 281 b 110 65 113 92 111 78 b 3 -256 96 -85 68 -197 l -121 -233 l -142 -321 b -75 -335 -121 -329 -101 -335 b -49 -332 -67 -335 -57 -333 b 193 97 75 -312 174 -149 z "},"g":{"ha":668,"x_min":0,"x_max":0,"o":"m 158 -343 b 426 -183 268 -340 368 -287 b 543 342 486 -78 506 3 b 551 385 546 356 549 371 l 597 642 l 596 642 b 414 692 553 671 489 692 b 43 189 211 692 43 447 b 154 -10 43 68 89 6 b 188 -14 164 -12 176 -14 b 467 304 268 -14 358 57 b 232 -285 419 -92 354 -210 l 22 -222 l -4 -306 b 158 -343 36 -328 101 -344 z m 125 203 b 383 635 125 435 251 635 b 494 569 436 635 474 608 l 481 439 b 461 382 474 419 467 400 b 221 60 379 163 289 63 b 125 203 156 58 125 110 z "},"ğ":{"ha":668,"x_min":0,"x_max":0,"o":"m 588 1024 l 544 1028 b 396 826 528 886 474 826 b 281 1028 301 826 263 881 l 197 1024 b 374 768 174 833 238 768 b 588 1024 503 768 567 851 z m 158 -343 b 426 -183 268 -340 368 -287 b 543 342 486 -78 506 3 b 551 385 546 356 549 371 l 597 642 l 596 642 b 414 692 553 671 489 692 b 43 189 211 692 43 447 b 154 -10 43 68 89 6 b 188 -14 164 -12 176 -14 b 467 304 268 -14 358 57 b 232 -285 419 -92 354 -210 l 22 -222 l -4 -306 b 158 -343 36 -328 101 -344 z m 125 203 b 383 635 125 435 251 635 b 494 569 436 635 474 608 l 481 439 b 461 382 474 419 467 400 b 221 60 379 163 289 63 b 125 203 156 58 125 110 z "},"ģ":{"ha":668,"x_min":0,"x_max":0,"o":"m 467 846 l 408 865 b 485 1031 413 922 436 975 l 460 1053 b 343 831 383 983 343 904 b 401 747 343 775 363 747 b 467 846 443 747 467 778 z m 158 -343 b 426 -183 268 -340 368 -287 b 543 342 486 -78 506 3 b 551 385 546 356 549 371 l 597 642 l 596 642 b 414 692 553 671 489 692 b 43 189 211 692 43 447 b 154 -10 43 68 89 6 b 188 -14 164 -12 176 -14 b 467 304 268 -14 358 57 b 232 -285 419 -92 354 -210 l 22 -222 l -4 -306 b 158 -343 36 -328 101 -344 z m 125 203 b 383 635 125 435 251 635 b 494 569 436 635 474 608 l 481 439 b 461 382 474 419 467 400 b 221 60 379 163 289 63 b 125 203 156 58 125 110 z "},"h":{"ha":736,"x_min":0,"x_max":0,"o":"m 663 14 l 665 44 l 576 68 b 631 533 578 256 631 392 b 492 694 631 639 578 694 b 199 344 367 694 288 588 l 257 850 l 315 1056 l 122 1024 l 117 992 l 190 965 l 181 764 l 111 208 l 79 -14 l 183 0 l 189 228 b 457 618 265 463 357 618 b 544 506 518 618 544 581 b 494 72 544 367 494 224 b 501 -14 494 43 496 15 z "},"i":{"ha":342,"x_min":0,"x_max":0,"o":"m 288 907 b 225 975 288 944 267 975 b 163 907 183 975 163 944 b 225 839 163 869 183 839 b 288 907 267 839 288 869 z m 268 14 l 271 44 l 183 68 l 204 342 l 267 694 l 83 678 l 78 646 l 161 606 l 103 128 b 96 46 99 93 96 68 b 100 -14 96 24 97 6 z "},"ı":{"ha":342,"x_min":0,"x_max":0,"o":"m 268 14 l 271 44 l 183 68 l 204 342 l 267 694 l 83 678 l 78 646 l 161 606 l 103 128 b 96 46 99 93 96 68 b 100 -14 96 24 97 6 z "},"í":{"ha":342,"x_min":0,"x_max":0,"o":"m 406 992 l 339 1056 l 138 788 l 160 768 z m 268 14 l 271 44 l 183 68 l 204 342 l 267 694 l 83 678 l 78 646 l 161 606 l 103 128 b 96 46 99 93 96 68 b 100 -14 96 24 97 6 z "},"î":{"ha":342,"x_min":0,"x_max":0,"o":"m 425 783 l 297 1056 l 214 1056 l 25 786 l 53 767 l 236 989 l 397 767 z m 268 14 l 271 44 l 183 68 l 204 342 l 267 694 l 83 678 l 78 646 l 161 606 l 103 128 b 96 46 99 93 96 68 b 100 -14 96 24 97 6 z "},"ï":{"ha":342,"x_min":0,"x_max":0,"o":"m 154 899 b 89 967 154 931 138 967 b 24 899 40 967 24 931 b 89 831 24 867 40 831 b 154 899 138 831 154 867 z m 426 899 b 361 967 426 931 410 967 b 296 899 313 967 296 931 b 361 831 296 867 313 831 b 426 899 410 831 426 867 z m 268 14 l 271 44 l 183 68 l 204 342 l 267 694 l 83 678 l 78 646 l 161 606 l 103 128 b 96 46 99 93 96 68 b 100 -14 96 24 97 6 z "},"ì":{"ha":342,"x_min":0,"x_max":0,"o":"m 301 768 l 324 788 l 122 1056 l 56 992 z m 268 14 l 271 44 l 183 68 l 204 342 l 267 694 l 83 678 l 78 646 l 161 606 l 103 128 b 96 46 99 93 96 68 b 100 -14 96 24 97 6 z "},"ī":{"ha":342,"x_min":0,"x_max":0,"o":"m 222 829 l 424 822 l 432 886 l 228 879 l 25 886 l 17 822 z m 268 14 l 271 44 l 183 68 l 204 342 l 267 694 l 83 678 l 78 646 l 161 606 l 103 128 b 96 46 99 93 96 68 b 100 -14 96 24 97 6 z "},"į":{"ha":342,"x_min":0,"x_max":0,"o":"m 288 907 b 225 975 288 944 267 975 b 163 907 183 975 163 944 b 225 839 163 869 183 839 b 288 907 267 839 288 869 z m 268 14 l 271 44 l 183 68 l 204 342 l 267 694 l 83 678 l 78 646 l 161 606 l 103 128 b 96 46 99 93 96 68 b 100 -14 96 24 97 6 l 186 0 b 38 -208 83 -75 38 -143 b 147 -307 38 -269 79 -307 b 257 -283 186 -307 224 -299 l 254 -250 b 119 -181 156 -265 119 -239 b 257 13 119 -117 161 -51 z "},"j":{"ha":333,"x_min":0,"x_max":0,"o":"m 347 907 b 285 975 347 944 326 975 b 222 907 243 975 222 944 b 285 839 222 869 243 839 b 347 907 326 839 347 869 z m 189 118 b 228 508 199 213 208 339 l 267 694 l 83 678 l 78 646 l 158 606 l 111 114 b 57 -154 100 -8 81 -87 l -111 -232 l -61 -333 b 189 118 101 -242 165 -112 z "},"k":{"ha":649,"x_min":0,"x_max":0,"o":"m 590 14 l 593 44 l 490 74 l 340 432 b 471 574 379 483 421 525 l 614 603 l 588 694 b 189 261 476 694 379 614 l 261 864 l 315 1056 l 122 1024 l 117 992 l 193 965 l 181 764 l 83 -10 l 183 0 l 188 182 b 290 361 225 254 258 313 l 429 -14 z "},"ķ":{"ha":649,"x_min":0,"x_max":0,"o":"m 590 14 l 593 44 l 490 74 l 340 432 b 471 574 379 483 421 525 l 614 603 l 588 694 b 189 261 476 694 379 614 l 261 864 l 315 1056 l 122 1024 l 117 992 l 193 965 l 181 764 l 83 -10 l 183 0 l 188 182 b 290 361 225 254 258 313 l 429 -14 z m 376 -136 b 318 -61 376 -92 356 -61 b 256 -154 279 -61 256 -92 l 303 -174 b 225 -339 297 -231 274 -283 l 251 -361 b 376 -136 329 -292 376 -225 z "},"l":{"ha":333,"x_min":0,"x_max":0,"o":"m 260 14 l 263 44 l 185 65 l 190 279 l 261 864 l 315 1056 l 122 1024 l 117 992 l 193 965 l 181 764 l 107 194 b 93 44 96 107 93 72 b 97 -14 93 22 94 4 z "},"ĺ":{"ha":333,"x_min":0,"x_max":0,"o":"m 461 1219 l 403 1299 l 190 1086 l 210 1063 z m 260 14 l 263 44 l 185 65 l 190 279 l 261 864 l 315 1056 l 122 1024 l 117 992 l 193 965 l 181 764 l 107 194 b 93 44 96 107 93 72 b 97 -14 93 22 94 4 z "},"ľ":{"ha":333,"x_min":0,"x_max":0,"o":"m 260 14 l 263 44 l 185 65 l 190 279 l 261 864 l 315 1056 l 122 1024 l 117 992 l 193 965 l 181 764 l 107 194 b 93 44 96 107 93 72 b 97 -14 93 22 94 4 z m 474 975 b 415 1050 474 1019 453 1050 b 353 957 376 1050 353 1019 l 400 938 b 322 772 394 881 371 828 l 349 750 b 474 975 426 819 474 886 z "},"ļ":{"ha":333,"x_min":0,"x_max":0,"o":"m 260 14 l 263 44 l 185 65 l 190 279 l 261 864 l 315 1056 l 122 1024 l 117 992 l 193 965 l 181 764 l 107 194 b 93 44 96 107 93 72 b 97 -14 93 22 94 4 z m 201 -136 b 143 -61 201 -92 181 -61 b 81 -154 104 -61 81 -92 l 128 -174 b 50 -339 122 -231 99 -283 l 76 -361 b 201 -136 154 -292 201 -225 z "},"ł":{"ha":333,"x_min":0,"x_max":0,"o":"m 260 14 l 263 44 l 185 65 l 190 279 l 221 528 l 397 628 l 367 679 l 228 590 l 261 864 l 315 1056 l 122 1024 l 117 992 l 193 965 l 181 764 l 153 544 l 11 464 l 40 414 l 144 481 l 107 194 b 93 44 96 107 93 72 b 97 -14 93 22 94 4 z "},"m":{"ha":1149,"x_min":0,"x_max":0,"o":"m 1075 14 l 1078 44 l 989 68 b 1043 533 990 256 1043 392 b 904 694 1043 639 990 694 b 606 331 776 694 697 583 b 639 539 619 400 639 472 b 500 694 639 639 586 694 b 201 328 372 694 292 583 b 240 617 221 450 240 554 b 233 694 240 646 239 667 l 85 678 l 78 646 l 163 604 l 97 -8 l 183 0 l 189 201 b 464 618 268 450 361 618 b 553 506 526 618 553 581 b 483 -14 551 374 521 185 l 585 0 l 589 190 b 869 618 668 446 764 618 b 957 506 931 618 957 581 b 907 72 957 367 907 224 b 914 -14 907 43 908 15 z "},"n":{"ha":744,"x_min":0,"x_max":0,"o":"m 671 14 l 674 44 l 585 68 b 639 533 586 256 639 392 b 500 694 639 639 586 694 b 203 332 374 694 293 585 b 240 617 221 453 240 554 b 233 694 240 646 239 667 l 85 678 l 78 646 l 163 604 l 97 -8 l 183 0 l 189 201 b 465 618 267 450 361 618 b 553 506 526 618 553 581 b 503 72 553 367 503 224 b 510 -14 503 43 504 15 z "},"ń":{"ha":744,"x_min":0,"x_max":0,"o":"m 568 992 l 501 1056 l 300 788 l 322 768 z m 671 14 l 674 44 l 585 68 b 639 533 586 256 639 392 b 500 694 639 639 586 694 b 203 332 374 694 293 585 b 240 617 221 453 240 554 b 233 694 240 646 239 667 l 85 678 l 78 646 l 163 604 l 97 -8 l 183 0 l 189 201 b 465 618 267 450 361 618 b 553 506 526 618 553 581 b 503 72 553 367 503 224 b 510 -14 503 43 504 15 z "},"ň":{"ha":744,"x_min":0,"x_max":0,"o":"m 188 1039 l 315 767 l 399 767 l 588 1036 l 560 1056 l 376 833 l 215 1056 z m 671 14 l 674 44 l 585 68 b 639 533 586 256 639 392 b 500 694 639 639 586 694 b 203 332 374 694 293 585 b 240 617 221 453 240 554 b 233 694 240 646 239 667 l 85 678 l 78 646 l 163 604 l 97 -8 l 183 0 l 189 201 b 465 618 267 450 361 618 b 553 506 526 618 553 581 b 503 72 553 367 503 224 b 510 -14 503 43 504 15 z "},"ņ":{"ha":744,"x_min":0,"x_max":0,"o":"m 671 14 l 674 44 l 585 68 b 639 533 586 256 639 392 b 500 694 639 639 586 694 b 203 332 374 694 293 585 b 240 617 221 453 240 554 b 233 694 240 646 239 667 l 85 678 l 78 646 l 163 604 l 97 -8 l 183 0 l 189 201 b 465 618 267 450 361 618 b 553 506 526 618 553 581 b 503 72 553 367 503 224 b 510 -14 503 43 504 15 z m 383 -136 b 325 -61 383 -92 363 -61 b 263 -154 286 -61 263 -92 l 310 -174 b 232 -339 304 -231 281 -283 l 258 -361 b 383 -136 336 -292 383 -225 z "},"ñ":{"ha":744,"x_min":0,"x_max":0,"o":"m 299 914 b 390 868 335 914 356 897 b 496 814 429 836 457 814 b 669 993 554 814 611 857 l 638 1006 b 528 896 603 949 571 896 b 433 942 488 896 471 914 b 328 994 393 972 364 994 b 153 821 276 994 214 960 l 188 807 b 299 914 221 868 254 914 z m 671 14 l 674 44 l 585 68 b 639 533 586 256 639 392 b 500 694 639 639 586 694 b 203 332 374 694 293 585 b 240 617 221 453 240 554 b 233 694 240 646 239 667 l 85 678 l 78 646 l 163 604 l 97 -8 l 183 0 l 189 201 b 465 618 267 450 361 618 b 553 506 526 618 553 581 b 503 72 553 367 503 224 b 510 -14 503 43 504 15 z "},"o":{"ha":638,"x_min":0,"x_max":0,"o":"m 589 442 b 383 694 589 600 515 694 b 49 246 165 694 49 454 b 264 -14 49 88 131 -14 b 589 442 476 -14 589 228 z m 140 263 b 363 636 140 446 208 636 b 499 431 458 636 499 567 b 282 47 499 243 429 47 b 140 263 186 47 140 125 z "},"ó":{"ha":638,"x_min":0,"x_max":0,"o":"m 568 992 l 501 1056 l 300 788 l 322 768 z m 589 442 b 383 694 589 600 515 694 b 49 246 165 694 49 454 b 264 -14 49 88 131 -14 b 589 442 476 -14 589 228 z m 140 263 b 363 636 140 446 208 636 b 499 431 458 636 499 567 b 282 47 499 243 429 47 b 140 263 186 47 140 125 z "},"ô":{"ha":638,"x_min":0,"x_max":0,"o":"m 588 783 l 460 1056 l 376 1056 l 188 786 l 215 767 l 399 989 l 560 767 z m 589 442 b 383 694 589 600 515 694 b 49 246 165 694 49 454 b 264 -14 49 88 131 -14 b 589 442 476 -14 589 228 z m 140 263 b 363 636 140 446 208 636 b 499 431 458 636 499 567 b 282 47 499 243 429 47 b 140 263 186 47 140 125 z "},"ö":{"ha":638,"x_min":0,"x_max":0,"o":"m 317 899 b 251 967 317 931 300 967 b 186 899 203 967 186 931 b 251 831 186 867 203 831 b 317 899 300 831 317 867 z m 589 899 b 524 967 589 931 572 967 b 458 899 475 967 458 931 b 524 831 458 867 475 831 b 589 899 572 831 589 867 z m 589 442 b 383 694 589 600 515 694 b 49 246 165 694 49 454 b 264 -14 49 88 131 -14 b 589 442 476 -14 589 228 z m 140 263 b 363 636 140 446 208 636 b 499 431 458 636 499 567 b 282 47 499 243 429 47 b 140 263 186 47 140 125 z "},"ò":{"ha":638,"x_min":0,"x_max":0,"o":"m 218 992 l 464 768 l 486 788 l 285 1056 z m 589 442 b 383 694 589 600 515 694 b 49 246 165 694 49 454 b 264 -14 49 88 131 -14 b 589 442 476 -14 589 228 z m 140 263 b 363 636 140 446 208 636 b 499 431 458 636 499 567 b 282 47 499 243 429 47 b 140 263 186 47 140 125 z "},"ő":{"ha":638,"x_min":0,"x_max":0,"o":"m 506 1003 l 433 1056 l 264 785 l 289 768 z m 717 1003 l 646 1056 l 478 785 l 501 768 z m 589 442 b 383 694 589 600 515 694 b 49 246 165 694 49 454 b 264 -14 49 88 131 -14 b 589 442 476 -14 589 228 z m 140 263 b 363 636 140 446 208 636 b 499 431 458 636 499 567 b 282 47 499 243 429 47 b 140 263 186 47 140 125 z "},"ō":{"ha":638,"x_min":0,"x_max":0,"o":"m 385 829 l 586 822 l 594 886 l 390 879 l 188 886 l 179 822 z m 589 442 b 383 694 589 600 515 694 b 49 246 165 694 49 454 b 264 -14 49 88 131 -14 b 589 442 476 -14 589 228 z m 140 263 b 363 636 140 446 208 636 b 499 431 458 636 499 567 b 282 47 499 243 429 47 b 140 263 186 47 140 125 z "},"ø":{"ha":779,"x_min":0,"x_max":0,"o":"m 661 442 b 642 565 661 489 654 531 l 761 690 l 706 740 l 610 625 b 456 694 575 669 522 694 b 121 246 238 694 121 454 b 143 118 121 197 129 154 l 19 -6 l 79 -61 l 178 57 b 336 -14 215 11 269 -14 b 661 442 549 -14 661 228 z m 213 263 b 435 636 213 446 281 636 b 553 557 494 636 532 610 l 490 482 l 250 224 l 218 192 b 213 263 214 213 213 236 z m 288 189 l 528 447 l 568 489 b 571 431 569 471 571 451 b 354 47 571 243 501 47 b 235 126 297 47 258 75 z "},"õ":{"ha":638,"x_min":0,"x_max":0,"o":"m 299 914 b 390 868 335 914 356 897 b 496 814 429 836 457 814 b 669 993 554 814 611 857 l 638 1006 b 528 896 603 949 571 896 b 433 942 488 896 471 914 b 328 994 393 972 364 994 b 153 821 276 994 214 960 l 188 807 b 299 914 221 868 254 914 z m 589 442 b 383 694 589 600 515 694 b 49 246 165 694 49 454 b 264 -14 49 88 131 -14 b 589 442 476 -14 589 228 z m 140 263 b 363 636 140 446 208 636 b 499 431 458 636 499 567 b 282 47 499 243 429 47 b 140 263 186 47 140 125 z "},"œ":{"ha":986,"x_min":0,"x_max":0,"o":"m 896 68 l 871 100 b 735 51 831 68 786 51 b 576 264 633 51 576 125 b 578 304 576 278 576 292 b 956 535 821 347 940 417 b 957 561 957 543 957 553 b 818 694 957 646 907 694 b 785 693 807 694 796 694 b 565 533 688 681 614 618 b 383 694 542 636 476 694 b 49 246 165 694 49 454 b 264 -14 49 88 131 -14 b 503 150 368 -14 450 54 b 714 -14 529 47 600 -14 b 896 68 785 -14 842 15 z m 140 263 b 356 636 140 446 208 636 b 499 431 458 636 499 567 b 288 47 499 243 429 47 b 140 263 186 47 140 125 z m 789 635 b 864 553 836 635 864 606 b 582 353 864 453 788 388 b 789 635 600 503 668 635 z "},"p":{"ha":679,"x_min":0,"x_max":0,"o":"m 154 -319 l 161 -42 l 164 -3 b 251 -14 189 -10 219 -14 b 635 440 454 -14 615 201 b 636 489 636 457 636 472 b 492 692 636 629 574 692 b 208 396 403 692 313 625 b 233 617 225 494 233 564 b 226 696 233 646 232 667 l 76 678 l 71 646 l 163 601 l 81 -112 l 49 -333 z m 458 618 b 554 475 524 619 554 568 b 286 47 554 243 432 47 b 171 89 239 47 200 60 l 182 231 b 203 289 189 251 196 271 b 458 618 285 514 376 617 z "},"þ":{"ha":689,"x_min":0,"x_max":0,"o":"m 165 -319 l 174 0 b 260 -14 196 -8 224 -14 b 642 421 458 -14 615 189 b 646 490 644 443 646 467 b 500 692 646 619 596 692 b 207 372 407 692 314 619 l 267 849 l 274 908 l 315 1056 l 122 1024 l 117 992 l 192 965 l 188 778 l 182 718 l 133 235 l 128 174 l 65 -333 z m 468 619 b 564 476 533 621 564 571 b 292 44 564 244 438 44 b 256 49 279 44 267 46 b 181 106 222 58 197 79 l 183 139 l 193 236 b 233 347 207 276 219 314 b 468 619 310 532 393 618 z "},"q":{"ha":665,"x_min":0,"x_max":0,"o":"m 564 -306 l 567 -276 l 497 -257 l 507 0 l 543 342 l 597 642 b 414 692 550 671 486 692 b 43 189 211 692 43 447 b 188 -14 43 49 106 -14 b 471 314 268 -14 361 58 b 397 -276 414 -126 397 -254 b 401 -333 397 -300 399 -315 z m 125 203 b 379 631 125 435 247 631 b 494 588 426 631 465 618 l 485 450 b 221 60 397 182 296 63 b 125 203 156 58 125 110 z "},"r":{"ha":469,"x_min":0,"x_max":0,"o":"m 183 0 l 189 219 b 365 563 256 399 315 493 l 483 603 l 457 694 b 200 322 367 694 310 626 b 240 617 221 447 240 553 b 233 694 240 646 239 667 l 85 678 l 78 646 l 163 604 l 97 -8 z "},"ŕ":{"ha":469,"x_min":0,"x_max":0,"o":"m 507 992 l 440 1056 l 239 788 l 261 768 z m 183 0 l 189 219 b 365 563 256 399 315 493 l 483 603 l 457 694 b 200 322 367 694 310 626 b 240 617 221 447 240 553 b 233 694 240 646 239 667 l 85 678 l 78 646 l 163 604 l 97 -8 z "},"ř":{"ha":469,"x_min":0,"x_max":0,"o":"m 126 1039 l 254 767 l 338 767 l 526 1036 l 499 1056 l 315 833 l 154 1056 z m 183 0 l 189 219 b 365 563 256 399 315 493 l 483 603 l 457 694 b 200 322 367 694 310 626 b 240 617 221 447 240 553 b 233 694 240 646 239 667 l 85 678 l 78 646 l 163 604 l 97 -8 z "},"ŗ":{"ha":469,"x_min":0,"x_max":0,"o":"m 183 0 l 189 219 b 365 563 256 399 315 493 l 483 603 l 457 694 b 200 322 367 694 310 626 b 240 617 221 447 240 553 b 233 694 240 646 239 667 l 85 678 l 78 646 l 163 604 l 97 -8 z m 208 -136 b 150 -61 208 -92 188 -61 b 88 -154 111 -61 88 -92 l 135 -174 b 57 -339 129 -231 106 -283 l 83 -361 b 208 -136 161 -292 208 -225 z "},"s":{"ha":493,"x_min":0,"x_max":0,"o":"m 421 188 b 292 382 421 272 392 318 b 150 532 188 449 150 472 b 274 640 150 593 194 636 l 429 574 l 457 660 b 296 694 415 678 365 694 b 74 504 172 694 74 613 b 231 318 74 418 113 389 b 344 161 326 261 344 217 b 225 46 344 99 301 51 l 54 122 l 24 28 b 200 -7 65 10 129 -7 b 421 188 322 -7 421 68 z "},"ś":{"ha":493,"x_min":0,"x_max":0,"o":"m 513 992 l 446 1056 l 244 788 l 267 768 z m 421 188 b 292 382 421 272 392 318 b 150 532 188 449 150 472 b 274 640 150 593 194 636 l 429 574 l 457 660 b 296 694 415 678 365 694 b 74 504 172 694 74 613 b 231 318 74 418 113 389 b 344 161 326 261 344 217 b 225 46 344 99 301 51 l 54 122 l 24 28 b 200 -7 65 10 129 -7 b 421 188 322 -7 421 68 z "},"š":{"ha":493,"x_min":0,"x_max":0,"o":"m 132 1039 l 260 767 l 343 767 l 532 1036 l 504 1056 l 321 833 l 160 1056 z m 421 188 b 292 382 421 272 392 318 b 150 532 188 449 150 472 b 274 640 150 593 194 636 l 429 574 l 457 660 b 296 694 415 678 365 694 b 74 504 172 694 74 613 b 231 318 74 418 113 389 b 344 161 326 261 344 217 b 225 46 344 99 301 51 l 54 122 l 24 28 b 200 -7 65 10 129 -7 b 421 188 322 -7 421 68 z "},"ş":{"ha":493,"x_min":0,"x_max":0,"o":"m 325 -140 b 201 -56 325 -78 276 -49 l 221 -6 b 421 188 333 1 421 75 b 292 382 421 272 392 318 b 150 532 188 449 150 472 b 274 640 150 593 194 636 l 429 574 l 457 660 b 296 694 415 678 365 694 b 74 504 172 694 74 613 b 231 318 74 418 113 389 b 344 161 326 261 344 217 b 225 46 344 99 301 51 l 54 122 l 24 28 b 169 -6 60 13 111 -1 l 125 -93 b 243 -160 214 -87 243 -117 b 144 -278 243 -204 211 -240 l 161 -306 b 325 -140 263 -267 325 -212 z "},"ș":{"ha":493,"x_min":0,"x_max":0,"o":"m 421 188 b 292 382 421 272 392 318 b 150 532 188 449 150 472 b 274 640 150 593 194 636 l 429 574 l 457 660 b 296 694 415 678 365 694 b 74 504 172 694 74 613 b 231 318 74 418 113 389 b 344 161 326 261 344 217 b 225 46 344 99 301 51 l 54 122 l 24 28 b 200 -7 65 10 129 -7 b 421 188 322 -7 421 68 z m 272 -121 b 214 -46 272 -76 251 -46 b 151 -139 175 -46 151 -76 l 199 -158 b 121 -324 193 -215 169 -268 l 147 -346 b 272 -121 225 -276 272 -210 z "},"ß":{"ha":710,"x_min":0,"x_max":0,"o":"m 193 97 b 231 656 204 244 210 383 b 426 996 242 843 304 996 b 531 869 504 996 531 935 b 478 725 531 800 506 761 b 385 547 436 675 385 631 b 482 368 385 474 425 429 b 564 194 543 301 564 256 b 390 43 564 93 507 43 b 297 61 360 43 325 50 l 279 21 b 413 -14 315 -3 365 -14 b 640 219 539 -14 640 72 b 556 421 640 303 615 356 b 460 590 494 488 460 532 b 517 710 460 642 486 676 b 613 901 560 757 613 803 b 446 1056 613 985 558 1056 b 156 708 296 1056 185 899 l 44 656 l 49 628 l 149 628 b 110 65 133 394 128 254 b 3 -256 96 -85 68 -197 l -121 -233 l -142 -321 b -75 -335 -121 -329 -101 -335 b 193 97 60 -335 174 -167 z "},"t":{"ha":481,"x_min":0,"x_max":0,"o":"m 432 33 l 418 72 b 297 50 374 57 336 50 b 208 244 229 50 189 94 l 258 626 l 465 611 l 478 692 l 261 678 l 301 846 l 268 854 l 199 703 l 72 656 l 76 628 l 181 628 l 129 239 b 157 25 114 119 126 63 b 257 -14 181 -3 215 -14 b 432 33 315 -14 385 7 z "},"ť":{"ha":481,"x_min":0,"x_max":0,"o":"m 508 975 b 450 1050 508 1019 488 1050 b 388 957 411 1050 388 1019 l 435 938 b 357 772 429 881 406 828 l 383 750 b 508 975 461 819 508 886 z m 432 33 l 418 72 b 297 50 374 57 336 50 b 208 244 229 50 189 94 l 258 626 l 465 611 l 478 692 l 261 678 l 301 846 l 268 854 l 199 703 l 72 656 l 76 628 l 181 628 l 129 239 b 157 25 114 119 126 63 b 257 -14 181 -3 215 -14 b 432 33 315 -14 385 7 z "},"ţ":{"ha":481,"x_min":0,"x_max":0,"o":"m 338 -156 b 214 -71 338 -93 289 -64 l 236 -12 b 257 -14 243 -14 250 -14 b 432 33 315 -14 385 7 l 418 72 b 297 50 374 57 336 50 b 208 244 229 50 189 94 l 258 626 l 465 611 l 478 692 l 261 678 l 301 846 l 268 854 l 199 703 l 72 656 l 76 628 l 181 628 l 129 239 b 157 25 114 119 126 63 b 192 -1 167 14 178 6 l 138 -108 b 256 -175 226 -103 256 -132 b 157 -293 256 -219 224 -256 l 174 -321 b 338 -156 275 -282 338 -228 z "},"ț":{"ha":481,"x_min":0,"x_max":0,"o":"m 432 33 l 418 72 b 297 50 374 57 336 50 b 208 244 229 50 189 94 l 258 626 l 465 611 l 478 692 l 261 678 l 301 846 l 268 854 l 199 703 l 72 656 l 76 628 l 181 628 l 129 239 b 157 25 114 119 126 63 b 257 -14 181 -3 215 -14 b 432 33 315 -14 385 7 z m 285 -136 b 226 -61 285 -92 264 -61 b 164 -154 188 -61 164 -92 l 211 -174 b 133 -339 206 -231 182 -283 l 160 -361 b 285 -136 238 -292 285 -225 z "},"u":{"ha":719,"x_min":0,"x_max":0,"o":"m 663 14 l 665 44 l 578 68 l 599 342 l 661 694 l 563 678 l 544 464 b 269 60 467 214 372 60 b 183 194 210 60 183 96 b 268 694 183 311 206 438 l 85 678 l 79 646 l 157 608 b 100 179 118 396 100 286 b 233 -14 100 50 151 -14 b 525 304 343 -14 421 69 b 490 46 494 104 490 65 b 494 -14 490 24 492 6 z "},"ú":{"ha":719,"x_min":0,"x_max":0,"o":"m 594 992 l 528 1056 l 326 788 l 349 768 z m 663 14 l 665 44 l 578 68 l 599 342 l 661 694 l 563 678 l 544 464 b 269 60 467 214 372 60 b 183 194 210 60 183 96 b 268 694 183 311 206 438 l 85 678 l 79 646 l 157 608 b 100 179 118 396 100 286 b 233 -14 100 50 151 -14 b 525 304 343 -14 421 69 b 490 46 494 104 490 65 b 494 -14 490 24 492 6 z "},"û":{"ha":719,"x_min":0,"x_max":0,"o":"m 614 783 l 486 1056 l 403 1056 l 214 786 l 242 767 l 425 989 l 586 767 z m 663 14 l 665 44 l 578 68 l 599 342 l 661 694 l 563 678 l 544 464 b 269 60 467 214 372 60 b 183 194 210 60 183 96 b 268 694 183 311 206 438 l 85 678 l 79 646 l 157 608 b 100 179 118 396 100 286 b 233 -14 100 50 151 -14 b 525 304 343 -14 421 69 b 490 46 494 104 490 65 b 494 -14 490 24 492 6 z "},"ü":{"ha":719,"x_min":0,"x_max":0,"o":"m 343 899 b 278 967 343 931 326 967 b 213 899 229 967 213 931 b 278 831 213 867 229 831 b 343 899 326 831 343 867 z m 615 899 b 550 967 615 931 599 967 b 485 899 501 967 485 931 b 550 831 485 867 501 831 b 615 899 599 831 615 867 z m 663 14 l 665 44 l 578 68 l 599 342 l 661 694 l 563 678 l 544 464 b 269 60 467 214 372 60 b 183 194 210 60 183 96 b 268 694 183 311 206 438 l 85 678 l 79 646 l 157 608 b 100 179 118 396 100 286 b 233 -14 100 50 151 -14 b 525 304 343 -14 421 69 b 490 46 494 104 490 65 b 494 -14 490 24 492 6 z "},"ù":{"ha":719,"x_min":0,"x_max":0,"o":"m 490 768 l 513 788 l 311 1056 l 244 992 z m 663 14 l 665 44 l 578 68 l 599 342 l 661 694 l 563 678 l 544 464 b 269 60 467 214 372 60 b 183 194 210 60 183 96 b 268 694 183 311 206 438 l 85 678 l 79 646 l 157 608 b 100 179 118 396 100 286 b 233 -14 100 50 151 -14 b 525 304 343 -14 421 69 b 490 46 494 104 490 65 b 494 -14 490 24 492 6 z "},"ű":{"ha":719,"x_min":0,"x_max":0,"o":"m 532 1003 l 460 1056 l 290 785 l 315 768 z m 743 1003 l 672 1056 l 504 785 l 528 768 z m 663 14 l 665 44 l 578 68 l 599 342 l 661 694 l 563 678 l 544 464 b 269 60 467 214 372 60 b 183 194 210 60 183 96 b 268 694 183 311 206 438 l 85 678 l 79 646 l 157 608 b 100 179 118 396 100 286 b 233 -14 100 50 151 -14 b 525 304 343 -14 421 69 b 490 46 494 104 490 65 b 494 -14 490 24 492 6 z "},"ū":{"ha":719,"x_min":0,"x_max":0,"o":"m 411 829 l 613 822 l 621 886 l 417 879 l 214 886 l 206 822 z m 663 14 l 665 44 l 578 68 l 599 342 l 661 694 l 563 678 l 544 464 b 269 60 467 214 372 60 b 183 194 210 60 183 96 b 268 694 183 311 206 438 l 85 678 l 79 646 l 157 608 b 100 179 118 396 100 286 b 233 -14 100 50 151 -14 b 525 304 343 -14 421 69 b 490 46 494 104 490 65 b 494 -14 490 24 492 6 z "},"ų":{"ha":719,"x_min":0,"x_max":0,"o":"m 588 -283 l 585 -250 b 450 -181 486 -265 450 -239 b 568 -1 450 -122 486 -61 l 663 14 l 665 44 l 578 68 l 599 342 l 661 694 l 563 678 l 544 464 b 269 60 467 214 372 60 b 183 194 210 60 183 96 b 268 694 183 311 206 438 l 85 678 l 79 646 l 157 608 b 100 179 118 396 100 286 b 233 -14 100 50 151 -14 b 525 304 343 -14 421 69 b 490 46 494 104 490 65 b 494 -14 490 24 492 6 l 499 -12 b 368 -208 408 -83 368 -147 b 478 -307 368 -269 410 -307 b 588 -283 517 -307 554 -299 z "},"ů":{"ha":719,"x_min":0,"x_max":0,"o":"m 592 936 b 457 1056 592 1008 539 1056 b 286 894 354 1056 286 992 b 422 767 286 818 339 767 b 592 936 524 767 592 835 z m 360 890 b 447 1017 360 965 396 1017 b 519 928 490 1017 519 982 b 431 806 519 854 483 806 b 360 890 389 806 360 840 z m 663 14 l 665 44 l 578 68 l 599 342 l 661 694 l 563 678 l 544 464 b 269 60 467 214 372 60 b 183 194 210 60 183 96 b 268 694 183 311 206 438 l 85 678 l 79 646 l 157 608 b 100 179 118 396 100 286 b 233 -14 100 50 151 -14 b 525 304 343 -14 421 69 b 490 46 494 104 490 65 b 494 -14 490 24 492 6 z "},"v":{"ha":596,"x_min":0,"x_max":0,"o":"m 238 -14 b 553 606 476 332 553 500 b 538 694 553 640 547 672 l 449 678 l 471 501 b 249 81 436 399 364 258 l 211 546 l 208 694 l 57 678 l 53 649 l 118 622 l 188 -18 z "},"w":{"ha":915,"x_min":0,"x_max":0,"o":"m 557 -14 b 872 606 796 332 872 500 b 857 694 872 640 867 672 l 768 678 l 790 501 b 568 81 756 399 683 258 l 524 507 l 511 692 l 425 678 l 460 479 l 463 456 b 249 78 425 382 374 283 l 215 494 l 211 546 l 208 694 l 57 678 l 53 649 l 118 625 l 186 -18 l 239 -14 b 469 378 368 190 426 293 l 507 -18 z "},"x":{"ha":586,"x_min":0,"x_max":0,"o":"m 376 -14 l 538 14 l 540 44 l 432 75 l 326 350 b 468 576 371 446 421 518 l 600 617 l 574 708 b 313 390 485 696 400 633 l 211 694 l 64 678 l 57 646 l 147 601 l 258 321 b 118 97 214 226 164 156 l -14 57 l 13 -35 b 274 281 101 -22 185 40 z "},"y":{"ha":596,"x_min":0,"x_max":0,"o":"m 281 -37 b 553 606 457 271 553 497 b 538 694 553 640 547 672 l 449 678 l 472 494 b 265 26 429 339 358 203 l 213 546 l 210 694 l 58 678 l 54 649 l 121 625 l 206 -79 b 131 -182 183 -117 160 -149 l -54 -246 l -18 -347 b 281 -37 132 -286 228 -178 z "},"ý":{"ha":596,"x_min":0,"x_max":0,"o":"m 503 992 l 436 1056 l 235 788 l 257 768 z m 281 -37 b 553 606 457 271 553 497 b 538 694 553 640 547 672 l 449 678 l 472 494 b 265 26 429 339 358 203 l 213 546 l 210 694 l 58 678 l 54 649 l 121 625 l 206 -79 b 131 -182 183 -117 160 -149 l -54 -246 l -18 -347 b 281 -37 132 -286 228 -178 z "},"ÿ":{"ha":596,"x_min":0,"x_max":0,"o":"m 251 899 b 186 967 251 931 235 967 b 121 899 138 967 121 931 b 186 831 121 867 138 831 b 251 899 235 831 251 867 z m 524 899 b 458 967 524 931 507 967 b 393 899 410 967 393 931 b 458 831 393 867 410 831 b 524 899 507 831 524 867 z m 281 -37 b 553 606 457 271 553 497 b 538 694 553 640 547 672 l 449 678 l 472 494 b 265 26 429 339 358 203 l 213 546 l 210 694 l 58 678 l 54 649 l 121 625 l 206 -79 b 131 -182 183 -117 160 -149 l -54 -246 l -18 -347 b 281 -37 132 -286 228 -178 z "},"z":{"ha":553,"x_min":0,"x_max":0,"o":"m 193 0 l 451 -14 l 457 67 b 94 39 333 71 224 61 l 539 633 l 507 693 l 374 678 l 111 692 l 106 611 b 447 635 217 608 335 615 l 14 46 l 50 -22 z "},"ź":{"ha":553,"x_min":0,"x_max":0,"o":"m 533 992 l 467 1056 l 265 788 l 288 768 z m 193 0 l 451 -14 l 457 67 b 94 39 333 71 224 61 l 539 633 l 507 693 l 374 678 l 111 692 l 106 611 b 447 635 217 608 335 615 l 14 46 l 50 -22 z "},"ž":{"ha":553,"x_min":0,"x_max":0,"o":"m 153 1039 l 281 767 l 364 767 l 553 1036 l 525 1056 l 342 833 l 181 1056 z m 193 0 l 451 -14 l 457 67 b 94 39 333 71 224 61 l 539 633 l 507 693 l 374 678 l 111 692 l 106 611 b 447 635 217 608 335 615 l 14 46 l 50 -22 z "},"ż":{"ha":553,"x_min":0,"x_max":0,"o":"m 415 907 b 353 975 415 944 394 975 b 290 907 311 975 290 944 b 353 839 290 869 311 839 b 415 907 394 839 415 869 z m 193 0 l 451 -14 l 457 67 b 94 39 333 71 224 61 l 539 633 l 507 693 l 374 678 l 111 692 l 106 611 b 447 635 217 608 335 615 l 14 46 l 50 -22 z "},"ﬀ":{"ha":750,"x_min":0,"x_max":0,"o":"m 193 97 b 228 626 204 239 210 374 l 540 618 b 508 149 529 460 524 317 b 367 -212 493 -37 447 -158 l 224 -171 l 196 -258 b 304 -279 225 -269 260 -279 b 585 111 439 -279 565 -111 b 621 626 596 225 604 419 l 803 614 l 814 692 l 626 681 b 731 976 640 818 668 921 l 854 954 l 875 1042 b 808 1056 854 1050 835 1056 b 547 690 686 1056 581 915 l 233 679 b 367 961 247 807 290 910 l 510 919 l 538 1007 b 429 1028 508 1018 474 1028 b 157 708 307 1028 190 885 l 44 656 l 49 628 l 149 628 b 110 65 133 394 128 254 b 3 -256 96 -85 68 -197 l -121 -233 l -142 -321 b -75 -335 -121 -329 -101 -335 b 193 97 60 -335 172 -167 z "},"ﬃ":{"ha":1136,"x_min":0,"x_max":0,"o":"m 193 97 b 228 626 204 239 210 374 l 540 618 b 508 149 529 460 524 317 b 367 -212 493 -37 447 -158 l 224 -171 l 196 -258 b 304 -279 225 -269 260 -279 b 585 111 439 -279 565 -111 b 588 142 586 121 586 131 b 621 622 597 257 606 435 l 957 618 l 913 250 b 897 128 907 210 903 168 b 890 46 893 93 890 68 b 894 -14 890 24 892 6 l 1063 14 l 1065 44 l 978 68 l 999 342 l 1056 656 l 1063 694 l 1019 693 l 626 678 b 731 976 640 818 668 921 l 854 954 l 875 1042 b 808 1056 854 1050 835 1056 b 778 1053 799 1056 788 1054 b 547 686 668 1032 576 894 l 233 679 b 367 961 246 807 290 910 l 510 919 l 538 1007 b 429 1028 508 1018 474 1028 b 396 1025 418 1028 407 1026 b 157 708 286 1001 188 868 l 44 656 l 49 628 l 149 628 b 114 108 135 413 129 276 b 110 65 113 94 111 79 b 3 -256 96 -85 68 -197 l -121 -233 l -142 -321 b -75 -335 -121 -329 -101 -335 b 193 97 60 -335 172 -167 z m 1135 907 b 1072 975 1135 944 1114 975 b 1010 907 1031 975 1010 944 b 1072 839 1010 869 1031 839 b 1135 907 1114 839 1135 869 z "},"ﬁ":{"ha":739,"x_min":0,"x_max":0,"o":"m 454 954 l 482 1042 b 415 1056 461 1050 442 1056 b 156 708 292 1056 185 908 l 44 656 l 49 628 l 149 628 b 110 65 133 394 128 254 b 3 -256 96 -85 68 -197 l -121 -233 l -142 -321 b -75 -335 -121 -329 -101 -335 b 193 97 60 -335 172 -167 b 228 626 204 239 210 374 l 560 618 l 500 128 b 493 46 496 93 493 68 b 497 -14 493 24 494 6 l 665 14 l 668 44 l 581 68 l 601 342 l 665 694 l 232 679 b 353 988 246 828 279 936 z m 738 907 b 675 975 738 944 717 975 b 613 907 633 975 613 944 b 675 839 613 869 633 839 b 738 907 717 839 738 869 z "},"ﬂ":{"ha":699,"x_min":0,"x_max":0,"o":"m 625 14 l 628 44 l 550 65 l 556 279 l 656 1057 l 546 1039 l 544 753 l 476 208 b 458 44 461 93 458 67 b 463 -14 458 22 460 4 z m 193 97 b 228 626 204 239 210 374 l 410 614 l 421 692 l 233 679 b 338 976 247 818 275 921 l 461 954 l 482 1042 b 415 1056 461 1050 442 1056 b 388 1053 406 1056 397 1054 b 157 708 281 1035 190 907 l 44 656 l 49 628 l 147 628 l 147 624 b 113 104 135 419 129 281 b 110 65 113 92 111 78 b 3 -256 96 -85 68 -197 l -121 -233 l -142 -321 b -75 -335 -121 -329 -101 -335 b -49 -332 -67 -335 -57 -333 b 193 97 75 -312 174 -149 z "},"ª":{"ha":438,"x_min":0,"x_max":0,"o":"m 433 446 l 438 475 l 383 501 l 407 742 l 410 765 l 442 861 b 318 893 410 881 367 893 b 69 594 185 893 79 751 b 68 568 68 586 68 576 b 163 436 68 482 100 436 b 329 592 214 436 268 472 b 317 503 324 557 319 528 l 317 486 b 322 435 317 467 318 454 z m 139 593 b 299 843 139 726 203 843 b 333 839 313 843 324 842 b 358 825 343 836 351 832 l 349 721 b 346 697 347 713 346 706 b 199 499 297 569 244 507 b 188 497 194 497 192 497 b 139 593 157 497 139 519 z "},"º":{"ha":451,"x_min":0,"x_max":0,"o":"m 449 729 b 301 893 449 832 400 893 b 72 606 147 893 72 738 b 224 438 72 503 126 438 b 449 729 375 438 449 593 z m 146 615 b 289 849 146 726 189 849 b 375 722 350 849 375 806 b 238 483 375 608 329 483 b 146 615 174 483 146 532 z "},"π":{"ha":765,"x_min":0,"x_max":0,"o":"m 524 -11 l 615 0 l 590 153 l 589 210 l 576 610 l 758 644 l 756 678 l 274 678 l 82 686 l 78 601 l 250 608 l 260 608 b 183 164 231 344 213 239 l 15 86 l 65 -15 b 306 608 236 75 282 139 l 533 608 b 524 -11 518 129 515 82 z "},"¹":{"ha":460,"x_min":0,"x_max":0,"o":"m 329 479 l 354 763 l 399 969 l 379 986 l 146 853 l 157 826 l 304 875 l 254 474 z "},"²":{"ha":432,"x_min":0,"x_max":0,"o":"m 424 564 l 161 538 l 233 610 b 272 636 247 619 260 628 b 444 840 394 719 438 771 b 446 861 446 847 446 854 b 318 979 446 933 400 979 b 107 894 240 979 175 950 l 163 831 l 260 935 b 281 936 267 936 274 936 b 358 847 324 936 358 911 b 199 629 358 761 307 708 l 68 535 l 78 486 l 189 493 l 418 474 z "},"³":{"ha":390,"x_min":0,"x_max":0,"o":"m 364 624 b 238 747 365 692 324 733 b 357 882 318 772 357 817 b 224 979 357 940 317 979 b 75 956 175 979 126 971 l 100 885 l 211 940 b 275 871 257 935 275 911 b 106 742 275 806 225 771 l 126 683 l 179 707 b 276 617 242 701 278 669 b 175 514 275 560 242 526 l 42 560 l 22 482 b 139 472 51 476 97 472 b 364 624 249 472 363 525 z "},"⁴":{"ha":432,"x_min":0,"x_max":0,"o":"m 326 479 l 333 578 l 422 571 l 433 635 l 338 629 l 365 867 l 389 972 l 322 979 l 35 601 l 42 579 l 267 579 l 251 474 z m 301 900 l 274 629 l 113 629 z "},"⁄":{"ha":865,"x_min":0,"x_max":0,"o":"m 219 201 l 676 726 l 907 972 l 835 1033 l 628 767 l 171 242 l -56 7 l 21 -61 z "},"½":{"ha":1171,"x_min":0,"x_max":0,"o":"m 401 201 l 858 726 l 1089 972 l 1017 1033 l 810 767 l 353 242 l 126 7 l 203 -61 z m 307 481 l 332 760 l 376 964 l 357 981 l 124 849 l 135 824 l 282 871 l 232 475 z m 1071 76 l 808 51 l 881 122 b 919 147 894 131 907 139 b 1092 349 1042 231 1085 281 b 1093 369 1092 356 1093 363 b 965 486 1093 442 1047 486 b 754 403 888 486 822 457 l 810 340 l 907 443 b 928 444 914 444 921 444 b 1001 389 963 444 992 428 b 1006 356 1004 379 1006 369 b 846 142 1006 271 954 219 l 715 49 l 725 0 l 836 7 l 1065 -12 z "},"¼":{"ha":1153,"x_min":0,"x_max":0,"o":"m 406 201 l 863 726 l 1093 972 l 1021 1033 l 814 767 l 357 242 l 131 7 l 207 -61 z m 307 479 l 332 763 l 376 969 l 357 986 l 124 853 l 135 826 l 282 875 l 232 474 z m 957 -7 l 964 92 l 1053 85 l 1064 149 l 968 143 l 996 381 l 1019 486 l 953 493 l 665 115 l 672 93 l 897 93 l 882 -12 z m 932 414 l 904 143 l 743 143 z "},"¾":{"ha":1196,"x_min":0,"x_max":0,"o":"m 449 201 l 906 726 l 1136 972 l 1064 1033 l 857 767 l 400 242 l 174 7 l 250 -61 z m 426 624 b 300 747 428 692 386 733 b 419 882 381 772 419 817 b 286 979 419 940 379 979 b 138 956 238 979 189 971 l 163 885 l 274 940 b 338 871 319 935 338 911 b 168 742 338 806 288 771 l 189 683 l 242 707 b 339 617 304 701 340 669 b 238 514 338 560 304 526 l 104 560 l 85 482 b 201 472 114 476 160 472 b 426 624 311 472 425 525 z m 1000 -7 l 1007 92 l 1096 85 l 1107 149 l 1011 143 l 1039 381 l 1063 486 l 996 493 l 708 115 l 715 93 l 940 93 l 925 -12 z m 975 414 l 947 143 l 786 143 z "},"*":{"ha":531,"x_min":0,"x_max":0,"o":"m 281 804 l 97 665 l 158 601 l 307 785 l 376 558 l 457 596 l 338 793 l 565 801 l 553 890 l 332 826 l 403 1043 l 315 1060 l 300 833 l 118 974 l 72 899 z "},"\\":{"ha":724,"x_min":0,"x_max":0,"o":"m 472 219 l 603 -67 l 688 -15 l 526 250 l 278 714 l 144 1008 l 65 961 l 225 683 z "},"·":{"ha":282,"x_min":0,"x_max":0,"o":"m 219 411 b 150 485 219 446 201 485 b 78 411 97 485 78 446 b 147 338 78 376 94 338 b 219 411 199 338 219 376 z "},"•":{"ha":492,"x_min":0,"x_max":0,"o":"m 429 415 b 254 596 429 524 360 596 b 79 415 149 596 79 524 b 254 235 79 307 149 235 b 429 415 360 235 429 307 z "},":":{"ha":281,"x_min":0,"x_max":0,"o":"m 238 586 b 168 660 238 621 219 660 b 96 586 115 660 96 621 b 165 513 96 551 113 513 b 238 586 217 513 238 551 z m 182 58 b 113 132 182 93 164 132 b 40 58 60 132 40 93 b 110 -15 40 24 57 -15 b 182 58 161 -15 182 24 z "},",":{"ha":285,"x_min":0,"x_max":0,"o":"m 182 35 b 110 149 182 108 156 149 b 42 39 61 149 36 92 l 106 17 b 13 -231 107 -75 81 -154 l 36 -256 b 182 35 122 -185 182 -65 z "},"…":{"ha":733,"x_min":0,"x_max":0,"o":"m 635 58 b 565 132 635 93 617 132 b 493 58 513 132 493 93 b 563 -15 493 24 510 -15 b 635 58 614 -15 635 24 z m 411 58 b 342 132 411 93 393 132 b 269 58 289 132 269 93 b 339 -15 269 24 286 -15 b 411 58 390 -15 411 24 z m 182 58 b 113 132 182 93 164 132 b 40 58 60 132 40 93 b 110 -15 40 24 57 -15 b 182 58 161 -15 182 24 z "},"!":{"ha":365,"x_min":0,"x_max":0,"o":"m 185 263 l 296 975 l 185 972 l 147 261 z m 224 58 b 154 132 224 93 206 132 b 82 58 101 132 82 93 b 151 -15 82 24 99 -15 b 224 58 203 -15 224 24 z "},"¡":{"ha":367,"x_min":0,"x_max":0,"o":"m 140 610 b 210 536 140 575 158 536 b 282 610 263 536 282 575 b 213 683 282 644 265 683 b 140 610 161 683 140 644 z m 179 406 l 68 -307 l 179 -304 l 217 407 z "},"#":{"ha":826,"x_min":0,"x_max":0,"o":"m 744 276 l 753 360 l 569 357 l 631 626 l 810 624 l 821 707 l 649 704 l 721 972 l 651 985 l 594 704 l 354 704 l 426 972 l 357 985 l 300 704 l 110 707 l 99 624 l 283 626 l 224 357 l 42 360 l 33 276 l 206 279 l 128 0 l 197 -12 l 258 279 l 501 279 l 425 0 l 494 -12 l 553 279 z m 275 357 l 335 626 l 578 626 l 519 357 z "},".":{"ha":281,"x_min":0,"x_max":0,"o":"m 182 58 b 113 132 182 93 164 132 b 40 58 60 132 40 93 b 110 -15 40 24 57 -15 b 182 58 161 -15 182 24 z "},"?":{"ha":532,"x_min":0,"x_max":0,"o":"m 149 263 l 171 383 l 288 444 b 500 719 432 522 500 592 b 103 986 500 860 388 953 l 93 897 l 324 886 b 414 725 389 850 414 796 b 228 494 414 625 364 568 l 101 426 l 111 261 z m 196 58 b 126 132 196 93 178 132 b 54 58 74 132 54 93 b 124 -15 54 24 71 -15 b 196 58 175 -15 196 24 z "},"¿":{"ha":553,"x_min":0,"x_max":0,"o":"m 335 611 b 404 538 335 576 353 538 b 476 611 457 538 476 576 b 407 685 476 646 460 685 b 335 611 356 685 335 646 z m 382 407 l 360 286 l 243 225 b 31 -50 99 147 31 78 b 428 -317 31 -190 143 -283 l 438 -228 l 207 -217 b 117 -56 142 -181 117 -126 b 303 175 117 44 167 101 l 429 243 l 419 408 z "},"\"":{"ha":213,"x_min":0,"x_max":0,"o":"m 244 1046 l 144 1056 l 119 682 l 156 678 z "},"'":{"ha":213,"x_min":0,"x_max":0,"o":"m 244 1046 l 144 1056 l 119 682 l 156 678 z "},";":{"ha":285,"x_min":0,"x_max":0,"o":"m 238 586 b 168 660 238 621 219 660 b 96 586 115 660 96 621 b 165 513 96 551 113 513 b 238 586 217 513 238 551 z m 182 35 b 110 149 182 108 156 149 b 42 39 61 149 36 92 l 106 17 b 13 -231 107 -75 81 -154 l 36 -256 b 182 35 122 -185 182 -65 z "},"/":{"ha":724,"x_min":0,"x_max":0,"o":"m 226 219 l 571 683 l 789 961 l 719 1008 l 525 714 l 179 250 l -37 -15 l 36 -67 z "},"_":{"ha":668,"x_min":0,"x_max":0,"o":"m 289 -93 l 593 -96 l 601 -35 l 294 -37 l -10 -35 l -18 -96 z "},"{":{"ha":479,"x_min":0,"x_max":0,"o":"m 408 -207 l 406 -175 b 357 -179 386 -178 374 -179 b 218 -46 244 -179 208 -132 b 281 226 226 32 271 135 b 158 429 289 304 268 389 b 322 614 276 474 313 529 b 315 886 332 706 307 808 b 482 1019 325 972 369 1019 b 531 1015 499 1019 511 1018 l 539 1047 b 444 1056 517 1051 490 1056 b 238 900 325 1056 250 1014 b 243 624 228 807 253 710 b 158 464 236 550 214 503 l 67 447 l 83 376 l 136 389 b 201 217 197 349 208 293 b 138 -60 192 131 147 35 b 321 -215 125 -174 178 -215 b 408 -207 361 -215 392 -211 z "},"}":{"ha":481,"x_min":0,"x_max":0,"o":"m 89 1047 l 92 1015 b 140 1019 111 1018 124 1019 b 279 886 253 1019 289 972 b 217 614 271 808 226 706 b 339 411 208 536 229 451 b 175 226 221 367 185 311 b 182 -46 165 135 190 32 b 15 -179 172 -132 128 -179 b -33 -175 -1 -179 -14 -178 l -42 -207 b 53 -215 -19 -211 7 -215 b 260 -60 172 -215 247 -174 b 254 217 269 33 244 131 b 339 376 261 290 283 338 l 431 393 l 414 464 l 361 451 b 296 624 300 492 289 547 b 360 900 306 710 350 806 b 176 1056 372 1014 319 1056 b 89 1047 136 1056 106 1051 z "},"[":{"ha":422,"x_min":0,"x_max":0,"o":"m 356 -143 l 160 -168 l 285 1001 l 489 976 l 489 1044 l 200 1044 l 183 767 l 111 67 l 67 -211 l 356 -211 z "},"]":{"ha":428,"x_min":0,"x_max":0,"o":"m 88 976 l 283 1001 l 158 -168 l -46 -143 l -46 -211 l 243 -211 l 260 67 l 332 767 l 376 1044 l 88 1044 z "},"(":{"ha":449,"x_min":0,"x_max":0,"o":"m 393 -183 b 174 356 232 -43 174 135 b 514 1013 174 629 283 840 l 496 1040 b 81 338 258 913 81 640 b 371 -211 81 99 203 -114 z "},")":{"ha":449,"x_min":0,"x_max":0,"o":"m 71 1010 b 290 471 232 869 290 692 b -50 -186 290 197 181 -14 l -32 -214 b 383 489 206 -86 383 186 b 93 1038 383 728 261 940 z "},"—":{"ha":1085,"x_min":0,"x_max":0,"o":"m 543 344 l 1056 340 l 1064 399 l 549 394 l 36 399 l 28 340 z "},"–":{"ha":668,"x_min":0,"x_max":0,"o":"m 335 344 l 639 340 l 647 399 l 340 394 l 36 399 l 28 340 z "},"-":{"ha":418,"x_min":0,"x_max":0,"o":"m 210 342 l 390 338 l 396 401 l 215 397 l 35 401 l 29 338 z "},"­":{"ha":0,"x_min":0,"x_max":0,"o":""},"«":{"ha":703,"x_min":0,"x_max":0,"o":"m 310 350 l 585 46 l 619 74 l 438 350 l 676 625 l 649 654 z m 29 350 l 304 46 l 339 74 l 157 350 l 396 625 l 368 654 z "},"»":{"ha":703,"x_min":0,"x_max":0,"o":"m 676 350 l 401 654 l 367 626 l 549 350 l 310 75 l 338 46 z m 396 350 l 121 654 l 86 626 l 268 350 l 29 75 l 57 46 z "},"‹":{"ha":422,"x_min":0,"x_max":0,"o":"m 29 350 l 304 46 l 339 74 l 157 350 l 396 625 l 368 654 z "},"›":{"ha":422,"x_min":0,"x_max":0,"o":"m 396 350 l 121 654 l 86 626 l 268 350 l 29 75 l 57 46 z "},"„":{"ha":533,"x_min":0,"x_max":0,"o":"m 429 21 b 357 135 429 94 403 135 b 289 25 308 135 283 78 l 353 3 b 260 -244 354 -89 328 -168 l 283 -269 b 429 21 369 -199 429 -79 z m 181 21 b 108 135 181 94 154 135 b 40 25 60 135 35 78 l 104 3 b 11 -244 106 -89 79 -168 l 35 -269 b 181 21 121 -199 181 -79 z "},"“":{"ha":472,"x_min":0,"x_max":0,"o":"m 78 778 b 150 664 78 704 104 664 b 218 774 199 664 224 721 l 154 796 b 247 1043 153 888 179 967 l 224 1068 b 78 778 138 997 78 878 z m 326 778 b 399 664 326 704 353 664 b 467 774 447 664 472 721 l 403 796 b 496 1043 401 888 428 967 l 472 1068 b 326 778 386 997 326 878 z "},"”":{"ha":474,"x_min":0,"x_max":0,"o":"m 506 953 b 433 1067 506 1026 479 1067 b 365 957 385 1067 360 1010 l 429 935 b 336 688 431 843 404 764 l 360 663 b 506 953 446 733 506 853 z m 257 953 b 185 1067 257 1026 231 1067 b 117 957 136 1067 111 1010 l 181 935 b 88 688 182 843 156 764 l 111 663 b 257 953 197 733 257 853 z "},"‘":{"ha":224,"x_min":0,"x_max":0,"o":"m 78 776 b 150 663 78 703 104 663 b 218 772 199 663 224 719 l 154 794 b 247 1042 153 886 179 965 l 224 1067 b 78 776 138 996 78 876 z "},"’":{"ha":225,"x_min":0,"x_max":0,"o":"m 257 953 b 185 1067 257 1026 231 1067 b 117 957 136 1067 111 1010 l 181 935 b 88 688 182 843 156 764 l 111 663 b 257 953 197 733 257 853 z "},"‚":{"ha":285,"x_min":0,"x_max":0,"o":"m 182 35 b 110 149 182 108 156 149 b 42 39 61 149 36 92 l 106 17 b 13 -231 107 -75 81 -154 l 36 -256 b 182 35 122 -185 182 -65 z "}," ":{"ha":197,"x_min":0,"x_max":0,"o":""}," ":{"ha":197,"x_min":0,"x_max":0,"o":""},"¢":{"ha":514,"x_min":0,"x_max":0,"o":"m 446 68 l 421 100 b 301 53 383 72 347 57 l 360 619 l 476 578 l 504 664 b 388 694 474 681 431 694 l 371 694 l 401 875 l 321 881 l 313 683 b 51 299 169 640 65 478 b 50 257 50 285 50 271 b 238 -12 50 94 124 -3 l 208 -175 l 290 -181 l 297 -11 b 446 68 351 -4 396 19 z m 142 278 b 232 567 142 399 175 503 b 308 624 254 593 279 613 l 249 57 b 142 278 185 74 142 140 z "},"¤":{"ha":781,"x_min":0,"x_max":0,"o":"m 403 208 b 572 260 471 208 529 226 l 689 119 l 750 185 l 610 294 b 668 467 647 339 668 397 b 611 635 668 533 647 592 l 747 742 l 686 807 l 574 671 b 403 722 529 704 471 722 b 232 671 335 722 276 704 l 118 810 l 57 744 l 196 636 b 138 467 158 593 138 535 b 197 293 138 397 158 338 l 54 182 l 115 117 l 233 260 b 403 208 278 226 335 208 z m 231 485 b 393 671 231 599 296 671 b 575 440 503 671 575 576 b 411 260 575 331 510 260 b 231 485 303 260 231 351 z "},"$":{"ha":681,"x_min":0,"x_max":0,"o":"m 613 221 b 447 492 613 313 586 386 b 396 528 432 503 414 515 l 431 849 l 442 924 b 633 689 526 907 578 846 l 669 700 l 601 986 l 525 968 b 450 983 501 975 478 981 l 478 1167 l 394 1174 l 383 983 b 131 747 215 974 131 871 b 325 476 131 639 178 569 b 333 471 328 475 331 472 l 297 144 l 282 43 b 92 278 189 54 128 113 l 56 271 l 96 -15 l 172 3 b 206 -4 183 0 194 -1 b 274 -12 229 -7 250 -11 l 250 -174 l 335 -181 l 344 -12 b 613 221 496 -4 613 79 z m 213 769 b 379 929 213 871 278 928 l 375 856 l 343 564 b 213 769 243 636 213 693 z m 354 138 l 386 435 b 524 239 492 358 519 300 b 525 213 525 231 525 221 b 349 43 525 101 454 50 b 354 138 350 75 353 106 z "},"€":{"ha":901,"x_min":0,"x_max":0,"o":"m 675 4 l 760 -14 l 853 290 l 817 303 b 572 42 743 106 663 51 b 538 40 561 40 549 40 b 258 381 346 40 267 192 l 640 375 l 646 432 l 257 428 b 258 465 257 440 257 453 b 264 535 258 490 261 513 l 657 529 l 663 586 l 271 582 b 600 929 313 822 444 929 b 850 690 719 929 782 881 l 886 700 l 818 986 l 742 968 b 617 985 707 978 665 985 b 183 582 426 985 243 842 l 26 585 l 21 531 l 174 533 b 164 428 169 500 165 465 l 10 431 l 4 376 l 164 379 b 517 -15 169 168 274 -15 b 675 4 575 -15 619 -10 z "},"ƒ":{"ha":622,"x_min":0,"x_max":0,"o":"m 340 238 b 364 472 350 314 357 396 l 571 460 l 585 539 l 369 526 b 375 569 371 542 372 556 b 510 864 394 711 435 815 l 653 822 l 682 910 b 572 931 653 921 617 931 b 543 928 563 931 553 929 b 300 600 429 910 339 782 b 292 553 297 585 294 568 l 150 503 l 154 474 l 282 474 b 258 233 271 364 267 297 b 121 -100 236 72 201 -47 l -22 -58 l -51 -146 b 58 -167 -22 -157 14 -167 b 340 238 204 -167 308 8 z "},"₺":{"ha":767,"x_min":0,"x_max":0,"o":"m 121 940 l 244 901 l 207 553 l 26 457 l 57 403 l 201 493 l 182 315 l 26 233 l 57 179 l 176 253 l 168 179 l 136 0 b 263 -14 167 -7 215 -14 b 711 267 414 -14 610 81 l 618 315 l 522 124 b 375 69 476 97 428 79 b 289 63 347 65 319 63 b 244 65 275 63 260 64 l 271 313 l 289 324 l 539 458 l 506 514 l 276 367 l 296 551 l 539 682 l 506 738 l 301 607 l 332 896 l 471 940 l 465 972 l 126 972 z "},"₽":{"ha":749,"x_min":0,"x_max":0,"o":"m 121 940 l 244 901 l 196 443 l 63 446 l 57 392 l 190 394 l 178 269 l 49 272 l 43 218 l 172 221 l 157 76 l 111 61 l 18 32 l 24 0 l 421 0 l 426 32 l 240 74 l 256 221 l 536 217 l 544 274 l 261 269 l 274 394 b 313 393 286 394 300 393 b 742 729 569 386 742 506 b 456 972 742 911 610 972 l 126 972 z m 431 922 b 644 729 574 924 644 860 b 306 443 644 535 521 443 l 279 443 l 328 910 z "},"£":{"ha":676,"x_min":0,"x_max":0,"o":"m 165 0 l 565 -14 l 617 244 l 583 253 l 503 85 l 100 58 b 271 413 211 167 271 268 b 269 442 271 422 271 432 l 563 436 l 569 493 l 264 489 b 215 724 249 574 215 633 b 388 929 215 864 290 929 b 629 690 503 929 561 881 l 665 700 l 597 986 l 521 968 b 408 985 486 978 451 985 b 126 694 226 985 126 847 b 172 490 126 607 156 551 l 46 492 l 40 438 l 182 440 b 183 411 183 431 183 421 b 69 100 183 268 140 172 l -28 75 l -4 -22 z "},"¥":{"ha":736,"x_min":0,"x_max":0,"o":"m 513 940 l 633 901 l 578 764 l 404 461 l 203 907 l 310 940 l 304 972 l 56 972 l 50 940 l 111 911 l 331 438 l 106 442 l 99 381 l 339 385 l 324 242 l 82 246 l 75 185 l 318 189 l 306 75 l 113 32 l 118 0 l 572 0 l 578 32 l 389 74 l 400 188 l 614 185 l 621 246 l 407 243 l 421 383 l 638 381 l 644 442 l 439 439 l 738 911 l 814 940 l 808 972 l 518 972 z "},"∙":{"ha":365,"x_min":0,"x_max":0,"o":"m 261 413 b 192 486 261 447 243 486 b 119 413 139 486 119 447 b 189 339 119 378 136 339 b 261 413 240 339 261 378 z "},"+":{"ha":715,"x_min":0,"x_max":0,"o":"m 692 381 l 692 442 l 394 439 l 413 732 l 319 732 l 338 439 l 39 442 l 39 381 l 338 383 l 333 310 l 319 90 l 413 90 l 399 310 l 394 383 z "},"−":{"ha":715,"x_min":0,"x_max":0,"o":"m 365 382 l 692 376 l 692 446 l 365 440 l 39 446 l 39 376 z "},"×":{"ha":649,"x_min":0,"x_max":0,"o":"m 619 189 l 435 356 l 374 411 l 613 647 l 569 690 l 333 451 l 111 699 l 44 633 l 292 410 l 51 174 l 94 131 l 332 371 l 388 310 l 554 124 z "},"÷":{"ha":715,"x_min":0,"x_max":0,"o":"m 435 682 b 365 754 435 715 417 754 b 296 682 314 754 296 715 b 365 610 296 649 314 610 b 435 682 417 610 435 649 z m 365 379 l 692 376 l 692 446 l 365 443 l 39 446 l 39 376 z m 435 126 b 365 199 435 160 417 199 b 296 126 314 199 296 160 b 365 54 296 93 314 54 b 435 126 417 54 435 93 z "},"=":{"ha":746,"x_min":0,"x_max":0,"o":"m 365 382 l 692 376 l 692 446 l 365 440 l 39 446 l 39 376 z m 381 231 l 707 225 l 707 294 l 381 289 l 54 294 l 54 225 z "},"≠":{"ha":746,"x_min":0,"x_max":0,"o":"m 381 231 l 707 225 l 707 294 l 381 289 l 331 290 l 458 510 l 464 519 l 707 515 l 707 585 l 503 582 l 624 772 l 563 807 l 440 581 l 411 581 l 381 579 l 54 585 l 54 515 l 381 521 l 408 521 l 279 300 l 274 290 l 54 294 l 54 225 l 233 228 l 114 38 l 175 3 l 297 229 z "},">":{"ha":676,"x_min":0,"x_max":0,"o":"m 449 274 l 649 349 l 657 418 l 90 756 l 50 685 l 575 386 l 43 124 l 83 56 z "},"<":{"ha":686,"x_min":0,"x_max":0,"o":"m 243 274 l 608 56 l 649 124 l 117 386 l 642 685 l 601 756 l 35 418 l 43 349 z "},"≥":{"ha":765,"x_min":0,"x_max":0,"o":"m 457 388 l 693 429 l 703 501 l 78 757 l 50 678 l 596 478 l 43 311 l 71 238 z m 383 83 l 710 78 l 710 147 l 383 142 l 57 147 l 57 78 z "},"≤":{"ha":729,"x_min":0,"x_max":0,"o":"m 699 317 l 142 486 l 692 683 l 668 757 l 43 494 l 53 429 l 289 382 l 671 238 z m 686 78 l 686 147 l 360 142 l 33 147 l 33 78 l 360 83 z "},"±":{"ha":740,"x_min":0,"x_max":0,"o":"m 696 421 l 696 485 l 399 478 l 417 696 l 324 696 l 342 478 l 43 485 l 43 421 l 342 428 l 324 210 l 417 210 l 399 428 z m 686 88 l 686 157 l 360 151 l 33 157 l 33 88 l 360 93 z "},"≈":{"ha":750,"x_min":0,"x_max":0,"o":"m 240 547 b 510 432 339 544 369 432 b 724 592 607 432 678 500 l 685 614 b 524 499 639 533 589 496 b 254 614 424 503 381 614 b 40 454 157 614 86 546 l 79 432 b 240 547 125 513 175 549 z m 240 311 b 510 196 339 308 369 196 b 724 356 607 196 678 264 l 685 378 b 524 263 639 297 589 260 b 254 378 424 267 381 378 b 40 218 157 378 86 310 l 79 196 b 240 311 125 276 175 313 z "},"~":{"ha":765,"x_min":0,"x_max":0,"o":"m 231 468 b 517 294 333 465 349 294 b 710 514 615 294 681 368 l 665 528 b 533 354 636 408 599 354 b 249 528 436 354 411 528 b 56 308 150 528 85 454 l 100 294 b 231 468 129 414 174 469 z "},"¬":{"ha":817,"x_min":0,"x_max":0,"o":"m 721 363 l 738 472 l 188 472 l 29 486 l 29 388 l 668 418 l 658 161 l 729 161 z "},"∞":{"ha":913,"x_min":0,"x_max":0,"o":"m 660 197 b 863 413 783 197 863 279 b 672 632 863 544 785 632 b 467 465 578 632 506 568 b 260 618 390 583 342 618 b 64 407 143 618 64 532 b 253 183 64 271 142 183 b 447 342 333 183 400 225 b 660 197 521 229 572 197 z m 489 432 l 488 435 b 663 579 540 542 590 579 b 794 408 735 579 794 525 b 676 271 794 314 744 271 b 489 432 610 271 575 294 z m 132 406 b 238 544 132 500 176 544 b 419 386 301 544 339 518 b 429 371 422 381 426 376 b 267 236 372 263 332 236 b 132 406 196 236 132 294 z "},"∫":{"ha":417,"x_min":0,"x_max":0,"o":"m 251 222 l 271 642 b 372 963 279 792 306 904 l 496 940 l 517 1028 b 450 1042 496 1036 476 1042 b 182 610 315 1042 194 875 l 163 190 b 61 -131 154 40 128 -72 l -62 -108 l -83 -196 b -17 -210 -62 -204 -43 -210 b 251 222 118 -210 239 -42 z "},"Ω":{"ha":1088,"x_min":0,"x_max":0,"o":"m 1028 243 l 996 251 l 921 83 l 632 68 b 969 549 882 182 969 358 b 535 983 969 818 801 983 b 99 549 253 983 99 789 b 436 68 99 358 186 182 l 147 83 l 72 251 l 40 243 l 76 -14 l 226 0 l 479 0 l 493 82 b 193 549 292 203 193 335 b 535 929 193 768 296 929 b 875 549 772 929 875 768 b 575 82 875 335 776 203 l 589 0 l 842 0 l 992 -14 z "},"∆":{"ha":813,"x_min":0,"x_max":0,"o":"m 794 32 l 504 979 l 435 972 l 354 764 l -44 53 l -21 0 l 556 0 l 767 -21 z m 457 847 l 679 83 l 53 83 z "},"∏":{"ha":967,"x_min":0,"x_max":0,"o":"m 340 -167 l 346 -135 l 222 -96 l 329 913 l 543 917 l 761 913 l 656 -90 l 517 -135 l 522 -167 l 856 -167 l 861 -135 l 738 -96 l 842 896 l 981 940 l 975 972 l 549 965 l 125 972 l 119 940 l 243 901 l 139 -90 l 0 -135 l 6 -167 z "},"∑":{"ha":756,"x_min":0,"x_max":0,"o":"m 692 124 l 660 133 l 565 -89 l 82 -110 l 513 415 l 399 592 l 244 925 l 622 897 l 701 693 l 732 701 l 685 986 l 521 972 l 163 972 l 139 919 l 422 386 l -6 -107 l 32 -181 l 206 -153 l 626 -181 z "},"√":{"ha":885,"x_min":0,"x_max":0,"o":"m 344 -181 l 836 1092 l 967 1122 l 964 1153 l 768 1181 l 697 914 l 346 -64 l 247 300 l 217 463 l 33 446 l 28 414 l 128 365 l 283 -186 z "},"µ":{"ha":711,"x_min":0,"x_max":0,"o":"m 133 -319 l 133 -97 l 142 17 b 224 -14 157 -4 182 -14 b 515 304 333 -14 410 67 b 482 46 485 104 482 65 b 486 -14 482 24 483 6 l 654 14 l 657 44 l 569 68 l 590 342 l 614 474 l 653 694 l 554 678 l 536 464 b 261 67 457 214 365 67 b 174 183 196 67 174 101 b 260 694 174 283 194 428 l 76 678 l 71 646 l 150 607 l 36 -333 z "},"∂":{"ha":647,"x_min":0,"x_max":0,"o":"m 618 596 b 381 986 618 846 549 986 b 164 900 310 986 225 946 l 185 864 b 344 925 243 901 307 925 b 517 624 457 925 514 839 b 382 694 478 672 428 694 b 49 246 179 694 49 468 b 264 -14 49 88 131 -14 b 618 596 456 -14 618 218 z m 140 263 b 363 636 140 474 225 636 b 515 550 422 636 478 608 b 282 47 503 153 374 47 b 140 263 186 47 140 125 z "},"%":{"ha":1107,"x_min":0,"x_max":0,"o":"m 365 192 l 803 733 l 1025 986 l 950 1044 l 753 771 l 315 231 l 97 -11 l 176 -76 z m 499 800 b 307 986 499 906 422 986 b 72 721 192 986 72 890 b 264 522 72 601 149 522 b 499 800 381 522 499 617 z m 156 715 b 303 931 156 865 226 931 b 414 783 381 931 414 869 b 265 578 414 644 343 578 b 156 715 189 578 156 639 z m 1067 264 b 875 450 1067 369 990 450 b 640 185 760 450 640 354 b 832 -14 640 65 717 -14 b 1067 264 949 -14 1067 81 z m 724 179 b 871 394 724 329 794 394 b 982 247 949 394 982 333 b 833 42 982 108 911 42 b 724 179 757 42 724 103 z "},"‰":{"ha":1646,"x_min":0,"x_max":0,"o":"m 365 192 l 803 733 l 1025 986 l 950 1044 l 753 771 l 315 231 l 97 -11 l 176 -76 z m 499 800 b 307 986 499 906 422 986 b 72 721 192 986 72 890 b 264 522 72 601 149 522 b 499 800 381 522 499 617 z m 156 715 b 303 931 156 865 226 931 b 414 783 381 931 414 869 b 265 578 414 644 343 578 b 156 715 189 578 156 639 z m 1606 264 b 1414 450 1606 369 1529 450 b 1179 185 1299 450 1179 354 b 1371 -14 1179 65 1256 -14 b 1606 264 1488 -14 1606 81 z m 1067 264 b 875 450 1067 369 990 450 b 640 185 760 450 640 354 b 832 -14 640 65 717 -14 b 1067 264 949 -14 1067 81 z m 1263 179 b 1410 394 1263 329 1333 394 b 1521 247 1488 394 1521 333 b 1372 42 1521 108 1450 42 b 1263 179 1296 42 1263 103 z m 724 179 b 871 394 724 329 794 394 b 982 247 949 394 982 333 b 833 42 982 108 911 42 b 724 179 757 42 724 103 z "},"◊":{"ha":639,"x_min":0,"x_max":0,"o":"m 318 -36 l 614 493 l 471 819 l 413 978 l 350 972 l 53 444 l 197 117 l 254 -42 z m 135 458 l 357 896 l 531 476 l 311 39 z "},"@":{"ha":1196,"x_min":0,"x_max":0,"o":"m 863 -121 l 844 -92 b 557 -162 760 -139 661 -162 b 150 275 254 -162 150 39 b 663 839 150 618 374 839 b 1057 469 921 839 1057 682 b 782 99 1057 243 950 115 l 783 278 l 861 585 b 692 635 821 611 754 635 b 343 211 508 635 343 456 b 474 42 343 97 397 42 b 724 290 549 42 608 76 b 697 119 706 217 697 168 b 704 40 697 94 700 64 b 1131 479 964 40 1132 204 b 665 889 1131 713 953 889 b 74 268 349 889 72 649 b 554 -212 74 7 222 -212 b 863 -121 656 -212 779 -179 z m 424 243 b 650 578 424 439 536 578 b 761 521 699 578 739 558 l 750 418 b 508 115 640 174 568 115 b 424 243 451 115 424 153 z "},"&":{"ha":910,"x_min":0,"x_max":0,"o":"m 817 0 l 828 29 b 625 215 756 90 688 153 b 828 590 689 306 754 429 l 739 618 b 586 254 689 458 638 340 b 357 532 486 357 407 456 l 358 533 b 624 831 553 653 624 719 b 443 986 624 921 554 986 b 194 749 297 986 194 900 b 264 526 194 676 213 615 b 57 208 103 408 57 326 b 288 -14 57 74 154 -14 b 574 146 386 -14 478 29 b 738 -17 626 89 683 35 z m 272 772 b 419 931 272 865 331 931 b 540 817 496 931 540 889 b 340 579 540 736 486 675 b 332 574 338 578 335 575 b 272 772 290 646 272 701 z m 144 236 b 288 486 144 336 179 406 b 538 182 340 407 433 296 b 371 56 482 108 425 69 b 317 49 353 51 335 49 b 144 236 217 49 144 110 z "},"¶":{"ha":724,"x_min":0,"x_max":0,"o":"m 443 -153 b 518 132 488 -76 506 0 l 599 896 l 738 940 l 732 972 l 607 972 b 474 979 558 975 524 979 b 83 628 268 979 83 857 b 468 318 83 403 217 300 l 453 169 b 383 -154 435 -8 413 -87 l 174 -246 l 224 -347 b 443 -153 299 -308 399 -228 z "},"§":{"ha":633,"x_min":0,"x_max":0,"o":"m 501 57 b 440 197 501 113 486 154 b 563 388 515 239 563 307 b 561 411 563 396 563 404 b 429 582 556 479 521 521 b 397 603 419 589 408 596 b 233 765 286 674 242 710 b 232 785 232 772 232 778 b 367 889 232 846 281 889 l 374 889 l 535 790 l 586 885 b 379 944 525 925 456 944 b 157 753 256 944 157 863 b 158 728 157 744 157 735 b 211 625 163 686 179 657 b 88 443 132 583 88 518 b 92 396 88 426 89 410 b 242 231 104 331 146 290 b 415 26 389 138 415 96 b 292 -83 415 -42 375 -83 l 285 -83 l 124 15 l 72 -79 b 281 -139 133 -119 203 -139 b 501 57 403 -139 501 -62 z m 308 296 b 168 474 201 364 168 396 b 239 600 168 532 193 574 b 342 529 265 579 300 557 b 481 358 449 460 481 429 b 479 336 481 351 481 343 b 411 224 474 282 449 247 b 308 296 385 246 350 269 z "},"©":{"ha":1169,"x_min":0,"x_max":0,"o":"m 1129 465 b 600 1007 1129 789 918 1007 b 68 465 282 1007 68 789 b 599 -72 68 144 281 -72 b 1129 465 918 -72 1129 144 z m 143 467 b 599 956 143 738 299 956 b 1056 467 900 956 1056 739 b 600 -21 1056 197 900 -21 b 143 467 299 -21 143 197 z m 826 208 l 806 246 b 638 204 747 215 694 204 b 400 485 496 204 400 326 b 608 744 400 644 485 744 b 678 733 636 744 658 740 l 749 558 l 778 563 l 796 758 b 621 796 751 781 692 796 b 306 456 429 796 306 642 b 608 129 306 268 438 129 b 826 208 692 129 763 160 z "},"®":{"ha":1167,"x_min":0,"x_max":0,"o":"m 1126 465 b 599 1006 1126 789 915 1006 b 68 465 281 1006 68 789 b 597 -71 68 144 279 -71 b 1126 465 915 -71 1126 144 z m 140 467 b 597 956 140 738 296 956 b 1054 467 899 956 1054 739 b 599 -21 1054 197 899 -21 b 140 467 297 -21 140 197 z m 594 167 l 597 199 l 508 231 l 508 449 l 585 447 l 710 257 l 753 167 l 876 167 l 879 199 l 815 231 l 647 456 b 799 629 736 471 799 528 b 579 794 799 742 719 794 l 367 794 l 363 763 l 439 731 l 439 231 l 363 199 l 367 167 z m 508 500 l 508 735 b 724 628 628 763 724 743 b 585 494 724 539 669 494 b 508 500 557 494 532 496 z "},"™":{"ha":1374,"x_min":0,"x_max":0,"o":"m 500 583 l 401 613 l 351 628 l 351 994 l 476 988 l 543 828 l 579 835 l 544 1056 l 404 1042 l 242 1042 l 76 1056 l 42 835 l 79 828 l 146 988 l 271 994 l 271 628 l 121 583 l 126 556 l 494 556 z m 1332 583 l 1226 628 l 1186 978 l 1276 1015 l 1271 1042 l 1117 1042 l 961 697 l 788 1042 l 631 1042 l 624 1015 l 726 974 l 679 624 l 569 583 l 575 556 l 817 556 l 822 583 l 738 618 l 764 936 l 919 626 l 975 626 l 1118 940 l 1142 626 l 1097 606 l 1051 583 l 1057 556 l 1326 556 z "},"°":{"ha":476,"x_min":0,"x_max":0,"o":"m 485 829 b 310 1000 485 926 426 1000 b 90 782 192 1000 90 921 b 268 608 90 686 150 608 b 485 829 385 608 485 686 z m 178 781 b 303 951 178 889 238 951 b 399 829 368 951 399 899 b 272 658 399 719 338 658 b 178 781 207 658 178 713 z "},"|":{"ha":336,"x_min":0,"x_max":0,"o":"m 149 -250 l 164 28 l 239 750 l 282 1028 l 197 1028 l 182 750 l 107 28 l 64 -250 z "},"¦":{"ha":336,"x_min":0,"x_max":0,"o":"m 219 556 l 239 750 l 282 1028 l 197 1028 l 182 750 l 163 556 z m 149 -250 l 164 28 l 183 224 l 126 224 l 107 28 l 64 -250 z "},"ℓ":{"ha":631,"x_min":0,"x_max":0,"o":"m 575 68 l 550 100 b 414 51 508 67 468 51 b 264 242 332 51 282 94 b 607 808 483 351 607 550 b 481 986 607 926 565 986 b 171 364 299 986 171 639 b 175 258 171 325 172 290 b -28 203 117 236 49 217 l -19 158 b 182 207 54 168 121 185 b 393 -14 210 50 283 -14 b 575 68 463 -14 521 13 z m 258 369 b 464 931 258 735 368 931 b 536 783 513 931 536 886 b 260 297 536 564 456 400 b 258 369 258 318 258 343 z "},"†":{"ha":554,"x_min":0,"x_max":0,"o":"m 318 271 l 349 667 l 578 651 l 588 731 l 356 715 l 404 965 l 311 965 l 299 715 l 69 731 l 60 651 l 292 667 l 225 271 z "},"‡":{"ha":501,"x_min":0,"x_max":0,"o":"m 293 271 l 301 485 l 503 469 l 513 549 l 308 533 l 328 703 l 529 688 l 539 767 l 335 751 l 379 965 l 286 965 l 278 751 l 76 767 l 67 688 l 271 703 l 251 533 l 50 549 l 40 469 l 244 485 l 200 271 z "},"℮":{"ha":1065,"x_min":0,"x_max":0,"o":"m 1013 392 b 1015 447 1015 417 1015 421 b 538 847 1015 683 804 847 b 61 417 275 847 61 682 b 565 -12 61 151 275 -12 b 994 140 722 -12 881 42 l 961 182 b 582 40 856 89 719 40 b 194 217 422 40 290 90 l 194 392 z m 194 640 b 540 794 282 743 392 794 b 888 640 689 794 800 743 l 888 450 l 194 450 z "},"^":{"ha":739,"x_min":0,"x_max":0,"o":"m 736 310 l 472 821 l 404 986 l 335 986 l -4 299 l 71 267 l 350 918 l 646 267 z "},"̈":{"ha":404,"x_min":0,"x_max":0,"o":"m 190 899 b 125 967 190 931 174 967 b 60 899 76 967 60 931 b 125 831 60 867 76 831 b 190 899 174 831 190 867 z m 463 899 b 397 967 463 931 446 967 b 332 899 349 967 332 931 b 397 831 332 867 349 831 b 463 899 446 831 463 867 z "},"̇":{"ha":125,"x_min":0,"x_max":0,"o":"m 185 907 b 122 975 185 944 164 975 b 60 907 81 975 60 944 b 122 839 60 869 81 839 b 185 907 164 839 185 869 z "},"̀":{"ha":289,"x_min":0,"x_max":0,"o":"m 68 992 l 314 768 l 336 788 l 135 1056 z "},"́":{"ha":247,"x_min":0,"x_max":0,"o":"m 315 992 l 249 1056 l 47 788 l 69 768 z "},"̋":{"ha":431,"x_min":0,"x_max":0,"o":"m 289 1003 l 217 1056 l 47 785 l 72 768 z m 500 1003 l 429 1056 l 261 785 l 285 768 z "},"̂":{"ha":400,"x_min":0,"x_max":0,"o":"m 447 783 l 319 1056 l 236 1056 l 47 786 l 75 767 l 258 989 l 419 767 z "},"̌":{"ha":400,"x_min":0,"x_max":0,"o":"m 74 1039 l 201 767 l 285 767 l 474 1036 l 446 1056 l 263 833 l 101 1056 z "},"̆":{"ha":390,"x_min":0,"x_max":0,"o":"m 463 1024 l 419 1028 b 271 826 403 886 349 826 b 156 1028 176 826 138 881 l 72 1024 b 249 768 49 833 113 768 b 463 1024 378 768 442 851 z "},"̊":{"ha":304,"x_min":0,"x_max":0,"o":"m 365 936 b 231 1056 365 1008 313 1056 b 60 894 128 1056 60 992 b 196 767 60 818 113 767 b 365 936 297 767 365 835 z m 133 890 b 221 1017 133 965 169 1017 b 293 928 264 1017 293 982 b 204 806 293 854 257 806 b 133 890 163 806 133 840 z "},"̃":{"ha":497,"x_min":0,"x_max":0,"o":"m 196 914 b 288 868 232 914 253 897 b 393 814 326 836 354 814 b 567 993 451 814 508 857 l 535 1006 b 425 896 500 949 468 896 b 331 942 385 896 368 914 b 225 994 290 972 261 994 b 50 821 174 994 111 960 l 85 807 b 196 914 118 868 151 914 z "},"̄":{"ha":410,"x_min":0,"x_max":0,"o":"m 257 829 l 458 822 l 467 886 l 263 879 l 60 886 l 51 822 z "},"̒":{"ha":125,"x_min":0,"x_max":0,"o":"m 176 846 l 118 865 b 194 1031 122 922 146 975 l 169 1053 b 53 831 93 983 53 904 b 111 747 53 775 72 747 b 176 846 153 747 176 778 z "},"̦":{"ha":132,"x_min":0,"x_max":0,"o":"m 81 -136 b 22 -61 81 -92 60 -61 b -40 -154 -17 -61 -40 -92 l 7 -174 b -71 -339 1 -231 -22 -283 l -44 -361 b 81 -136 33 -292 81 -225 z "},"̧":{"ha":206,"x_min":0,"x_max":0,"o":"m 153 -156 b 29 -71 153 -93 104 -64 l 65 21 l 18 21 l -47 -108 b 71 -175 42 -103 71 -132 b -28 -293 71 -219 39 -256 l -11 -321 b 153 -156 90 -282 153 -228 z "},"̨":{"ha":228,"x_min":0,"x_max":0,"o":"m 163 -283 l 160 -250 b 25 -181 61 -265 25 -239 b 165 14 25 -117 68 -50 l 111 14 b -57 -208 -6 -67 -57 -139 b 53 -307 -57 -269 -15 -307 b 163 -283 92 -307 129 -299 z "},"̷":{"ha":368,"x_min":0,"x_max":0,"o":"m 190 344 l 381 451 l 350 503 l 163 383 l -6 288 l 24 238 z "},"̸":{"ha":668,"x_min":0,"x_max":0,"o":"m 231 175 l 471 433 l 704 676 l 649 726 l 433 468 l 193 210 l -37 -19 l 22 -75 z "},"ˉ":{"ha":410,"x_min":0,"x_max":0,"o":"m 257 829 l 458 822 l 467 886 l 263 879 l 60 886 l 51 822 z "},"´":{"ha":247,"x_min":0,"x_max":0,"o":"m 315 992 l 249 1056 l 47 788 l 69 768 z "},"˘":{"ha":390,"x_min":0,"x_max":0,"o":"m 519 1024 l 476 1028 b 328 826 460 886 406 826 b 213 1028 233 826 194 881 l 129 1024 b 306 768 106 833 169 768 b 519 1024 435 768 499 851 z "},"ˇ":{"ha":400,"x_min":0,"x_max":0,"o":"m 74 1039 l 201 767 l 285 767 l 474 1036 l 446 1056 l 263 833 l 101 1056 z "},"¸":{"ha":206,"x_min":0,"x_max":0,"o":"m 153 -156 b 29 -71 153 -93 104 -64 l 65 21 l 18 21 l -47 -108 b 71 -175 42 -103 71 -132 b -28 -293 71 -219 39 -256 l -11 -321 b 153 -156 90 -282 153 -228 z "},"ˆ":{"ha":400,"x_min":0,"x_max":0,"o":"m 447 783 l 319 1056 l 236 1056 l 47 786 l 75 767 l 258 989 l 419 767 z "},"¨":{"ha":404,"x_min":0,"x_max":0,"o":"m 250 899 b 185 967 250 931 233 967 b 119 899 136 967 119 931 b 185 831 119 867 136 831 b 250 899 233 831 250 867 z m 522 899 b 457 967 522 931 506 967 b 392 899 408 967 392 931 b 457 831 392 867 408 831 b 522 899 506 831 522 867 z "},"˙":{"ha":125,"x_min":0,"x_max":0,"o":"m 244 907 b 182 975 244 944 224 975 b 119 907 140 975 119 944 b 182 839 119 869 140 839 b 244 907 224 839 244 869 z "},"`":{"ha":289,"x_min":0,"x_max":0,"o":"m 68 992 l 314 768 l 336 788 l 135 1056 z "},"˝":{"ha":431,"x_min":0,"x_max":0,"o":"m 289 1003 l 217 1056 l 47 785 l 72 768 z m 500 1003 l 429 1056 l 261 785 l 285 768 z "},"¯":{"ha":410,"x_min":0,"x_max":0,"o":"m 285 829 l 486 822 l 494 886 l 290 879 l 88 886 l 79 822 z "},"˛":{"ha":228,"x_min":0,"x_max":0,"o":"m 163 -283 l 160 -250 b 25 -181 61 -265 25 -239 b 165 14 25 -117 68 -50 l 111 14 b -57 -208 -6 -67 -57 -139 b 53 -307 -57 -269 -15 -307 b 163 -283 92 -307 129 -299 z "},"˚":{"ha":304,"x_min":0,"x_max":0,"o":"m 365 936 b 231 1056 365 1008 313 1056 b 60 894 128 1056 60 992 b 196 767 60 818 113 767 b 365 936 297 767 365 835 z m 133 890 b 221 1017 133 965 169 1017 b 293 928 264 1017 293 982 b 204 806 293 854 257 806 b 133 890 163 806 133 840 z "},"˜":{"ha":497,"x_min":0,"x_max":0,"o":"m 201 914 b 293 868 238 914 258 897 b 399 814 332 836 360 814 b 572 993 457 814 514 857 l 540 1006 b 431 896 506 949 474 896 b 336 942 390 896 374 914 b 231 994 296 972 267 994 b 56 821 179 994 117 960 l 90 807 b 201 914 124 868 157 914 z "},"":{"ha":2415,"x_min":0,"x_max":0,"o":"m 153 0 l 453 0 l 453 972 l 153 972 z m 515 689 l 815 689 l 815 972 l 515 972 z m 876 0 l 1178 0 l 1178 972 l 876 972 z m 1239 689 l 1539 689 l 1539 972 l 1239 972 z m 1600 0 l 1901 0 l 1901 972 l 1600 972 z m 1963 689 l 2263 689 l 2263 972 l 1963 972 z m 1963 343 l 2263 343 l 2263 628 l 1963 628 z "}}}
